<?xml version="1.0" encoding="UTF-8" standalone="no"?>
<!DOCTYPE svg PUBLIC "-//W3C//DTD SVG 1.1//EN" "http://www.w3.org/Graphics/SVG/1.1/DTD/svg11.dtd">
<svg width="100%" height="100%" viewBox="0 0 3544 3544" version="1.1" xmlns="http://www.w3.org/2000/svg" xmlns:xlink="http://www.w3.org/1999/xlink" xml:space="preserve" xmlns:serif="http://www.serif.com/" style="fill-rule:evenodd;clip-rule:evenodd;stroke-linejoin:round;stroke-miterlimit:2;">
    <g id="Bottom">
        <g id="Cut">
            <g transform="matrix(11.1988,0,0,11.1988,-27475.7,-29854.6)">
                <path d="M2474.15,2716.63L2505.6,2716.63C2508.57,2716.63 2510.97,2714.23 2510.97,2711.26C2510.97,2708.3 2508.57,2705.9 2505.6,2705.9C2504.23,2705.9 2502.91,2705.35 2501.94,2704.38C2500.97,2703.41 2500.42,2702.09 2500.42,2700.72L2500.42,2695.44C2500.42,2694.07 2500.97,2692.75 2501.94,2691.78C2502.91,2690.81 2504.23,2690.26 2505.6,2690.26L2542.51,2690.26C2543.89,2690.26 2545.21,2690.81 2546.18,2691.78C2547.15,2692.75 2547.7,2694.07 2547.7,2695.44L2547.7,2700.72C2547.7,2703.58 2545.38,2705.9 2542.51,2705.9C2539.55,2705.9 2537.15,2708.3 2537.15,2711.26C2537.15,2714.23 2539.55,2716.63 2542.51,2716.63L2700.53,2716.63C2700.58,2716.63 2700.62,2716.67 2700.62,2716.72L2700.62,2727.08C2700.62,2728.51 2701.19,2729.87 2702.19,2730.88C2703.2,2731.88 2704.57,2732.45 2705.99,2732.45L2716.35,2732.45C2716.4,2732.45 2716.44,2732.49 2716.44,2732.54L2716.44,2837.82C2716.44,2839.25 2717.01,2840.61 2718.01,2841.62C2719.02,2842.62 2720.39,2843.19 2721.81,2843.19L2727.08,2843.19C2730.05,2843.19 2732.45,2840.79 2732.45,2837.82C2732.45,2836.45 2732.99,2835.13 2733.97,2834.16C2734.94,2833.19 2736.26,2832.64 2737.63,2832.64L2742.9,2832.64C2744.28,2832.64 2745.59,2833.19 2746.57,2834.16C2747.54,2835.13 2748.08,2836.45 2748.08,2837.82L2748.08,2938.02C2748.08,2939.39 2747.54,2940.71 2746.57,2941.68C2745.59,2942.65 2744.28,2943.2 2742.9,2943.2L2737.63,2943.2C2734.77,2943.2 2732.45,2940.88 2732.45,2938.02C2732.45,2936.59 2731.88,2935.23 2730.88,2934.22C2729.87,2933.22 2728.51,2932.65 2727.08,2932.65L2721.81,2932.65C2720.39,2932.65 2719.02,2933.22 2718.01,2934.22C2717.01,2935.23 2716.44,2936.59 2716.44,2938.02L2716.44,2958.92C2716.44,2958.95 2716.43,2958.97 2716.41,2958.99C2716.4,2959.01 2716.37,2959.02 2716.35,2959.02C2582.67,2958.92 2474.16,2850.4 2474.05,2716.72C2474.05,2716.7 2474.06,2716.67 2474.08,2716.66C2474.1,2716.64 2474.12,2716.63 2474.15,2716.63Z" style="fill:none;stroke:black;stroke-width:0.37px;"/>
            </g>
            <g transform="matrix(-1.74021,7.15802e-16,-6.13544e-16,-1.74021,7672.74,4213.04)">
                <circle cx="2716.24" cy="1263.01" r="11.877" style="fill:none;stroke:black;stroke-width:2.39px;stroke-linecap:round;stroke-miterlimit:1.5;"/>
            </g>
            <g transform="matrix(-0.870105,-1.50707,1.50707,-0.870105,2152.43,6483.96)">
                <circle cx="2716.24" cy="1263.01" r="11.877" style="fill:none;stroke:black;stroke-width:2.39px;stroke-linecap:round;stroke-miterlimit:1.5;"/>
            </g>
        </g>
    </g>
</svg>
