<?xml version="1.0" encoding="UTF-8" standalone="no"?>
<!DOCTYPE svg PUBLIC "-//W3C//DTD SVG 1.1//EN" "http://www.w3.org/Graphics/SVG/1.1/DTD/svg11.dtd">
<svg width="100%" height="100%" viewBox="0 0 3544 3544" version="1.1" xmlns="http://www.w3.org/2000/svg" xmlns:xlink="http://www.w3.org/1999/xlink" xml:space="preserve" xmlns:serif="http://www.serif.com/" style="fill-rule:evenodd;clip-rule:evenodd;stroke-linejoin:round;stroke-miterlimit:2;">
    <g id="Top">
        <g id="Engraving">
            <g transform="matrix(1,0,0,1,229.67,-2149.28)">
                <path d="M2244.09,4179.92L2235.76,4171.58L2235.76,5011.42C2235.76,5016.02 2239.49,5019.75 2244.09,5019.75L3188.98,5019.75C3193.58,5019.75 3197.31,5016.02 3197.31,5011.42C3197.31,5006.82 3193.58,5003.08 3188.98,5003.08L2252.43,5003.08L2252.43,4171.58C2252.43,4171.58 2252.43,4000.31 2252.43,4000.31C2252.43,3995.71 2248.69,3991.97 2244.09,3991.97C2239.49,3991.97 2235.76,3995.71 2235.76,4000.31L2235.76,4171.58L2244.09,4179.92Z"/>
            </g>
            <g transform="matrix(1,0,0,1,229.67,-2149.28)">
                <path d="M969.497,4280.34L1800.9,3800.33C1804.89,3798.03 1806.26,3792.93 1803.95,3788.94C1801.66,3784.96 1796.56,3783.59 1792.57,3785.89L968.38,4261.74C968.38,4261.74 504.272,3457.88 504.272,3457.88C504.273,3457.88 1224.41,3042.11 1224.41,3042.11C1224.41,3042.11 1349.75,2969.74 1349.75,2969.74C1353.73,2967.44 1355.1,2962.34 1352.8,2958.36C1350.5,2954.38 1345.4,2953.01 1341.42,2955.31L488.722,3447.61C484.737,3449.91 483.371,3455.01 485.672,3459L958.113,4277.29C960.414,4281.27 965.511,4282.64 969.497,4280.34Z"/>
            </g>
            <g transform="matrix(1,0,0,1,229.67,-2149.28)">
                <path d="M2900.36,4343.37L2238.2,5005.53C2234.95,5008.78 2234.95,5014.06 2238.2,5017.31C2241.45,5020.56 2246.74,5020.56 2249.99,5017.31L2912.14,4355.15C2915.39,4351.9 2915.39,4346.62 2912.14,4343.37C2908.89,4340.12 2903.61,4340.12 2900.36,4343.37Z"/>
            </g>
            <g transform="matrix(1,0,0,1,229.67,-2149.28)">
                <path d="M1399.57,3689.15L495.046,3446.78C490.603,3445.59 486.03,3448.23 484.84,3452.67C483.649,3457.12 486.29,3461.69 490.732,3462.88L1395.25,3705.24C1399.69,3706.44 1404.27,3703.8 1405.46,3699.35C1406.65,3694.91 1404.01,3690.34 1399.57,3689.15Z"/>
            </g>
            <g transform="matrix(1,0,0,1,229.67,-2149.28)">
                <path d="M2486.24,5009.43C2483.52,5001.32 2480.58,4993.39 2477.4,4985.62C2476.09,4982.43 2472.44,4980.89 2469.25,4982.2C2466.05,4983.51 2464.52,4987.16 2465.83,4990.35C2468.9,4997.87 2471.76,5005.55 2474.39,5013.4C2475.49,5016.67 2479.03,5018.44 2482.3,5017.34C2485.57,5016.25 2487.34,5012.7 2486.24,5009.43ZM2466.99,4962.43C2463.23,4954.77 2459.24,4947.3 2455,4940C2453.26,4937.02 2449.44,4936 2446.45,4937.73C2443.47,4939.47 2442.46,4943.3 2444.19,4946.28C2448.28,4953.32 2452.14,4960.54 2455.77,4967.93C2457.29,4971.03 2461.03,4972.31 2464.13,4970.79C2467.23,4969.27 2468.51,4965.53 2466.99,4962.43ZM2441.45,4918.47C2436.67,4911.45 2431.65,4904.62 2426.39,4897.96C2424.24,4895.26 2420.31,4894.8 2417.61,4896.94C2414.9,4899.08 2414.44,4903.01 2416.58,4905.72C2421.66,4912.14 2426.5,4918.73 2431.11,4925.5C2433.05,4928.35 2436.94,4929.09 2439.79,4927.15C2442.65,4925.21 2443.39,4921.32 2441.45,4918.47ZM2409.91,4878.59C2404.22,4872.35 2398.29,4866.3 2392.12,4860.41C2389.63,4858.03 2385.67,4858.13 2383.28,4860.62C2380.9,4863.12 2381,4867.08 2383.49,4869.46C2389.45,4875.14 2395.18,4880.99 2400.68,4887.01C2403,4889.56 2406.96,4889.74 2409.51,4887.41C2412.05,4885.09 2412.23,4881.13 2409.91,4878.59ZM2373.16,4843.5C2366.72,4838.12 2360.05,4832.9 2353.17,4827.85C2350.39,4825.81 2346.47,4826.42 2344.43,4829.2C2342.39,4831.98 2342.99,4835.89 2345.77,4837.93C2352.45,4842.83 2358.91,4847.88 2365.15,4853.09C2367.8,4855.31 2371.74,4854.95 2373.95,4852.3C2376.16,4849.65 2375.81,4845.71 2373.16,4843.5ZM2332.27,4813.47C2325.26,4808.94 2318.03,4804.55 2310.61,4800.32C2307.62,4798.61 2303.8,4799.65 2302.09,4802.65C2300.38,4805.64 2301.42,4809.46 2304.42,4811.17C2311.64,4815.29 2318.66,4819.56 2325.49,4823.97C2328.39,4825.84 2332.26,4825.01 2334.13,4822.11C2336,4819.22 2335.17,4815.34 2332.27,4813.47ZM2288.31,4788.34C2280.87,4784.59 2273.26,4780.97 2265.46,4777.49C2262.31,4776.08 2258.61,4777.5 2257.2,4780.65C2255.8,4783.8 2257.21,4787.5 2260.36,4788.9C2267.98,4792.3 2275.41,4795.84 2282.68,4799.5C2285.75,4801.06 2289.52,4799.82 2291.07,4796.74C2292.62,4793.66 2291.39,4789.9 2288.31,4788.34Z"/>
            </g>
            <g transform="matrix(0.5,0.866025,-0.866025,0.5,3940.53,-3143.6)">
                <path d="M2486.24,5009.43C2483.52,5001.32 2480.58,4993.39 2477.4,4985.62C2476.09,4982.43 2472.44,4980.89 2469.25,4982.2C2466.05,4983.51 2464.52,4987.16 2465.83,4990.35C2468.9,4997.87 2471.76,5005.55 2474.39,5013.4C2475.49,5016.67 2479.03,5018.44 2482.3,5017.34C2485.57,5016.25 2487.34,5012.7 2486.24,5009.43ZM2466.99,4962.43C2463.23,4954.77 2459.24,4947.3 2455,4940C2453.26,4937.02 2449.44,4936 2446.45,4937.73C2443.47,4939.47 2442.46,4943.3 2444.19,4946.28C2448.28,4953.32 2452.14,4960.54 2455.77,4967.93C2457.29,4971.03 2461.03,4972.31 2464.13,4970.79C2467.23,4969.27 2468.51,4965.53 2466.99,4962.43ZM2441.45,4918.47C2436.67,4911.45 2431.65,4904.62 2426.39,4897.96C2424.24,4895.26 2420.31,4894.8 2417.61,4896.94C2414.9,4899.08 2414.44,4903.01 2416.58,4905.72C2421.66,4912.14 2426.5,4918.73 2431.11,4925.5C2433.05,4928.35 2436.94,4929.09 2439.79,4927.15C2442.65,4925.21 2443.39,4921.32 2441.45,4918.47ZM2409.91,4878.59C2404.22,4872.35 2398.29,4866.3 2392.12,4860.41C2389.63,4858.03 2385.67,4858.13 2383.28,4860.62C2380.9,4863.12 2381,4867.08 2383.49,4869.46C2389.45,4875.14 2395.18,4880.99 2400.68,4887.01C2403,4889.56 2406.96,4889.74 2409.51,4887.41C2412.05,4885.09 2412.23,4881.13 2409.91,4878.59ZM2373.16,4843.5C2366.72,4838.12 2360.05,4832.9 2353.17,4827.85C2350.39,4825.81 2346.47,4826.42 2344.43,4829.2C2342.39,4831.98 2342.99,4835.89 2345.77,4837.93C2352.45,4842.83 2358.91,4847.88 2365.15,4853.09C2367.8,4855.31 2371.74,4854.95 2373.95,4852.3C2376.16,4849.65 2375.81,4845.71 2373.16,4843.5ZM2332.27,4813.47C2325.26,4808.94 2318.03,4804.55 2310.61,4800.32C2307.62,4798.61 2303.8,4799.65 2302.09,4802.65C2300.38,4805.64 2301.42,4809.46 2304.42,4811.17C2311.64,4815.29 2318.66,4819.56 2325.49,4823.97C2328.39,4825.84 2332.26,4825.01 2334.13,4822.11C2336,4819.22 2335.17,4815.34 2332.27,4813.47ZM2288.31,4788.34C2280.87,4784.59 2273.26,4780.97 2265.46,4777.49C2262.31,4776.08 2258.61,4777.5 2257.2,4780.65C2255.8,4783.8 2257.21,4787.5 2260.36,4788.9C2267.98,4792.3 2275.41,4795.84 2282.68,4799.5C2285.75,4801.06 2289.52,4799.82 2291.07,4796.74C2292.62,4793.66 2291.39,4789.9 2288.31,4788.34Z"/>
            </g>
            <g transform="matrix(1,0,0,1,225.67,-2100.28)">
                <path d="M2703.04,5342.87L2707.38,5343.96C2706.47,5347.53 2704.83,5350.25 2702.47,5352.12C2700.1,5353.99 2697.21,5354.93 2693.8,5354.93C2690.26,5354.93 2687.39,5354.21 2685.17,5352.77C2682.95,5351.33 2681.27,5349.24 2680.11,5346.51C2678.95,5343.78 2678.38,5340.85 2678.38,5337.72C2678.38,5334.3 2679.03,5331.32 2680.34,5328.78C2681.64,5326.23 2683.5,5324.3 2685.91,5322.98C2688.32,5321.66 2690.97,5321 2693.86,5321C2697.15,5321 2699.91,5321.84 2702.14,5323.51C2704.38,5325.18 2705.94,5327.53 2706.82,5330.56L2702.55,5331.56C2701.79,5329.18 2700.68,5327.44 2699.24,5326.35C2697.79,5325.26 2695.97,5324.72 2693.77,5324.72C2691.25,5324.72 2689.14,5325.32 2687.45,5326.53C2685.76,5327.74 2684.57,5329.36 2683.88,5331.4C2683.2,5333.43 2682.85,5335.53 2682.85,5337.7C2682.85,5340.49 2683.26,5342.92 2684.07,5345C2684.89,5347.08 2686.15,5348.64 2687.87,5349.67C2689.58,5350.7 2691.44,5351.21 2693.44,5351.21C2695.87,5351.21 2697.93,5350.51 2699.62,5349.11C2701.3,5347.71 2702.44,5345.63 2703.04,5342.87Z" style="fill-rule:nonzero;"/>
            </g>
            <g transform="matrix(-1.83697e-16,1,-1,-1.83697e-16,5613.74,-2099.02)">
                <path d="M2679.63,5354.37L2679.63,5321.56L2690.93,5321.56C2693.48,5321.56 2695.43,5321.72 2696.77,5322.03C2698.65,5322.46 2700.26,5323.25 2701.59,5324.38C2703.32,5325.84 2704.61,5327.71 2705.47,5329.99C2706.33,5332.26 2706.75,5334.86 2706.75,5337.78C2706.75,5340.28 2706.46,5342.48 2705.88,5344.41C2705.3,5346.33 2704.55,5347.93 2703.64,5349.19C2702.73,5350.45 2701.74,5351.44 2700.66,5352.16C2699.57,5352.89 2698.27,5353.44 2696.74,5353.81C2695.21,5354.18 2693.45,5354.37 2691.47,5354.37L2679.63,5354.37ZM2683.97,5350.5L2690.98,5350.5C2693.14,5350.5 2694.84,5350.3 2696.07,5349.89C2697.3,5349.49 2698.28,5348.92 2699.01,5348.19C2700.04,5347.16 2700.84,5345.78 2701.42,5344.04C2701.99,5342.3 2702.28,5340.19 2702.28,5337.72C2702.28,5334.29 2701.72,5331.65 2700.59,5329.81C2699.46,5327.96 2698.09,5326.73 2696.48,5326.1C2695.32,5325.66 2693.45,5325.43 2690.87,5325.43L2683.97,5325.43L2683.97,5350.5Z" style="fill-rule:nonzero;"/>
            </g>
            <g transform="matrix(1.09186,-4.44089e-16,2.77556e-16,0.711943,-20.479,1293.7)">
                <path d="M2716.83,1151.34L2743.88,1222.68L2689.79,1222.68L2716.83,1151.34Z"/>
            </g>
            <g transform="matrix(0.545928,0.945575,-0.616561,0.355972,833.743,-1638.74)">
                <path d="M2716.83,1151.34L2743.88,1222.68L2689.79,1222.68L2716.83,1151.34Z"/>
            </g>
        </g>
    </g>
</svg>
