<?xml version="1.0" encoding="UTF-8" standalone="no"?>
<!DOCTYPE svg PUBLIC "-//W3C//DTD SVG 1.1//EN" "http://www.w3.org/Graphics/SVG/1.1/DTD/svg11.dtd">
<svg width="100%" height="100%" viewBox="0 0 3544 3544" version="1.1" xmlns="http://www.w3.org/2000/svg" xmlns:xlink="http://www.w3.org/1999/xlink" xml:space="preserve" xmlns:serif="http://www.serif.com/" style="fill-rule:evenodd;clip-rule:evenodd;stroke-linejoin:round;stroke-miterlimit:2;">
    <g transform="matrix(1,0,0,1,229.67,-2149.28)">
        <g id="Top">
            <g id="Cut-2" serif:id="Cut 2">
                <path d="M3069.82,4207.37L3069.82,5196.85C3069.82,5212.24 3063.71,5226.99 3052.83,5237.87C3041.95,5248.75 3027.2,5254.86 3011.81,5254.86L2952.76,5254.86C2920.72,5254.86 2894.74,5228.89 2894.74,5196.85C2894.74,5180.91 2888.41,5165.63 2877.14,5154.36C2865.87,5143.09 2850.58,5136.75 2834.65,5136.75L2775.59,5136.75C2759.65,5136.75 2744.37,5143.09 2733.1,5154.36C2721.83,5165.63 2715.49,5180.91 2715.49,5196.85L2715.49,5430.99C2715.49,5431.26 2715.38,5431.53 2715.19,5431.72C2714.99,5431.92 2714.73,5432.03 2714.45,5432.03C1217.38,5430.9 2.169,4215.69 1.042,2718.62C1.042,2718.34 1.152,2718.08 1.347,2717.88C1.543,2717.69 1.808,2717.58 2.084,2717.58L354.331,2717.58C387.521,2717.58 414.427,2690.67 414.427,2657.48C414.427,2624.29 387.521,2597.38 354.331,2597.38C338.945,2597.38 324.189,2591.27 313.309,2580.39C302.429,2569.51 296.317,2554.76 296.317,2539.37L296.317,2480.32C296.317,2464.93 302.429,2450.17 313.309,2439.29C324.189,2428.41 338.945,2422.3 354.331,2422.3L767.717,2422.3C783.103,2422.3 797.859,2428.41 808.738,2439.29C819.618,2450.17 825.73,2464.93 825.73,2480.32L825.73,2539.37C825.73,2571.41 799.756,2597.38 767.717,2597.38C734.526,2597.38 707.62,2624.29 707.62,2657.48C707.62,2690.67 734.526,2717.58 767.717,2717.58L1184.93,2717.58C1185.5,2717.58 1185.97,2718.04 1185.97,2718.62C1187.09,3562.41 1872.49,4247.11 2716.53,4247.11C2837.68,4247.11 2955.57,4233 3068.54,4206.36C3068.85,4206.29 3069.18,4206.36 3069.43,4206.56C3069.68,4206.75 3069.82,4207.06 3069.82,4207.37Z" style="fill:none;stroke:black;stroke-width:4.17px;"/>
            </g>
        </g>
    </g>
</svg>
