<?xml version="1.0" encoding="UTF-8" standalone="no"?>
<!DOCTYPE svg PUBLIC "-//W3C//DTD SVG 1.1//EN" "http://www.w3.org/Graphics/SVG/1.1/DTD/svg11.dtd">
<svg width="100%" height="100%" viewBox="0 0 3544 3544" version="1.1" xmlns="http://www.w3.org/2000/svg" xmlns:xlink="http://www.w3.org/1999/xlink" xml:space="preserve" xmlns:serif="http://www.serif.com/" style="fill-rule:evenodd;clip-rule:evenodd;stroke-linecap:round;stroke-linejoin:round;stroke-miterlimit:1.5;">
    <g id="Bottom">
    </g>
    <g id="Top">
        <g id="Cut-1" serif:id="Cut 1">
            <g transform="matrix(-0.395871,1.11022e-16,-1.11022e-16,-0.395871,3736.19,2904.94)">
                <circle cx="3188.98" cy="1898.24" r="208.849" style="fill:none;stroke:black;stroke-width:10.53px;"/>
            </g>
            <g transform="matrix(-0.197935,-0.342834,0.342834,-0.197935,1316.71,2420.24)">
                <circle cx="3188.98" cy="1898.24" r="208.849" style="fill:none;stroke:black;stroke-width:10.53px;"/>
            </g>
            <g transform="matrix(-0.197935,-0.342834,0.342834,-0.197935,1789.15,3238.53)">
                <circle cx="3188.98" cy="1898.24" r="208.849" style="fill:none;stroke:black;stroke-width:10.53px;"/>
            </g>
            <g transform="matrix(-0.395871,1.11022e-16,-1.11022e-16,-0.395871,3736.19,3141.16)">
                <circle cx="3188.98" cy="1898.24" r="208.849" style="fill:none;stroke:black;stroke-width:10.53px;"/>
            </g>
            <g transform="matrix(-0.197935,-0.342834,0.342834,-0.197935,1112.13,2538.35)">
                <circle cx="3188.98" cy="1898.24" r="208.849" style="fill:none;stroke:black;stroke-width:10.53px;"/>
            </g>
            <g transform="matrix(-0.197935,-0.342834,0.342834,-0.197935,1584.57,3356.64)">
                <circle cx="3188.98" cy="1898.24" r="208.849" style="fill:none;stroke:black;stroke-width:10.53px;"/>
            </g>
            <g transform="matrix(-0.279923,0.279923,-0.279923,-0.279923,4134.01,2264.61)">
                <circle cx="3188.98" cy="1898.24" r="208.849" style="fill:none;stroke:black;stroke-width:10.53px;"/>
            </g>
            <g transform="matrix(-0.382382,-0.102459,0.102459,-0.382382,2070.16,2444.61)">
                <circle cx="3188.98" cy="1898.24" r="208.849" style="fill:none;stroke:black;stroke-width:10.53px;"/>
            </g>
            <g transform="matrix(-0.279923,0.279923,-0.279923,-0.279923,4275.99,2122.64)">
                <circle cx="3188.98" cy="1898.24" r="208.849" style="fill:none;stroke:black;stroke-width:10.53px;"/>
            </g>
            <g transform="matrix(-0.382382,-0.102459,0.102459,-0.382382,2264.1,2496.58)">
                <circle cx="3188.98" cy="1898.24" r="208.849" style="fill:none;stroke:black;stroke-width:10.53px;"/>
            </g>
            <g transform="matrix(-0.279923,0.279923,-0.279923,-0.279923,4417.97,1980.66)">
                <circle cx="3188.98" cy="1898.24" r="208.849" style="fill:none;stroke:black;stroke-width:10.53px;"/>
            </g>
            <g transform="matrix(-0.382382,-0.102459,0.102459,-0.382382,2458.05,2548.54)">
                <circle cx="3188.98" cy="1898.24" r="208.849" style="fill:none;stroke:black;stroke-width:10.53px;"/>
            </g>
            <g transform="matrix(-0.279923,0.279923,-0.279923,-0.279923,4559.95,1838.68)">
                <circle cx="3188.98" cy="1898.24" r="208.849" style="fill:none;stroke:black;stroke-width:10.53px;"/>
            </g>
            <g transform="matrix(-0.382382,-0.102459,0.102459,-0.382382,2651.99,2600.51)">
                <circle cx="3188.98" cy="1898.24" r="208.849" style="fill:none;stroke:black;stroke-width:10.53px;"/>
            </g>
            <g transform="matrix(-0.395871,1.11022e-16,-1.11022e-16,-0.395871,3440.91,3377.38)">
                <circle cx="3188.98" cy="1898.24" r="208.849" style="fill:none;stroke:black;stroke-width:10.53px;"/>
            </g>
            <g transform="matrix(-0.197935,-0.342834,0.342834,-0.197935,759.923,2400.75)">
                <circle cx="3188.98" cy="1898.24" r="208.849" style="fill:none;stroke:black;stroke-width:10.53px;"/>
            </g>
            <g transform="matrix(-0.395871,1.11022e-16,-1.11022e-16,-0.395871,3204.69,3377.38)">
                <circle cx="3188.98" cy="1898.24" r="208.849" style="fill:none;stroke:black;stroke-width:10.53px;"/>
            </g>
            <g transform="matrix(-0.197935,-0.342834,0.342834,-0.197935,641.812,2196.17)">
                <circle cx="3188.98" cy="1898.24" r="208.849" style="fill:none;stroke:black;stroke-width:10.53px;"/>
            </g>
            <g transform="matrix(-0.395871,1.11022e-16,-1.11022e-16,-0.395871,3736.19,3377.38)">
                <circle cx="3188.98" cy="1898.24" r="208.849" style="fill:none;stroke:black;stroke-width:10.53px;"/>
            </g>
            <g transform="matrix(-0.197935,-0.342834,0.342834,-0.197935,907.56,2656.46)">
                <circle cx="3188.98" cy="1898.24" r="208.849" style="fill:none;stroke:black;stroke-width:10.53px;"/>
            </g>
            <g transform="matrix(-0.197935,-0.342834,0.342834,-0.197935,1380,3474.75)">
                <circle cx="3188.98" cy="1898.24" r="208.849" style="fill:none;stroke:black;stroke-width:10.53px;"/>
            </g>
            <g transform="matrix(-0.395871,1.11022e-16,-1.11022e-16,-0.395871,3440.91,3613.6)">
                <circle cx="3188.98" cy="1898.24" r="208.849" style="fill:none;stroke:black;stroke-width:10.53px;"/>
            </g>
            <g transform="matrix(-0.197935,-0.342834,0.342834,-0.197935,555.35,2518.86)">
                <circle cx="3188.98" cy="1898.24" r="208.849" style="fill:none;stroke:black;stroke-width:10.53px;"/>
            </g>
            <g transform="matrix(-0.395871,1.11022e-16,-1.11022e-16,-0.395871,3204.69,3613.6)">
                <circle cx="3188.98" cy="1898.24" r="208.849" style="fill:none;stroke:black;stroke-width:10.53px;"/>
            </g>
            <g transform="matrix(-0.197935,-0.342834,0.342834,-0.197935,437.239,2314.28)">
                <circle cx="3188.98" cy="1898.24" r="208.849" style="fill:none;stroke:black;stroke-width:10.53px;"/>
            </g>
            <g transform="matrix(-0.395871,1.11022e-16,-1.11022e-16,-0.395871,3736.19,3613.6)">
                <circle cx="3188.98" cy="1898.24" r="208.849" style="fill:none;stroke:black;stroke-width:10.53px;"/>
            </g>
            <g transform="matrix(-0.197935,-0.342834,0.342834,-0.197935,702.988,2774.57)">
                <circle cx="3188.98" cy="1898.24" r="208.849" style="fill:none;stroke:black;stroke-width:10.53px;"/>
            </g>
            <g transform="matrix(-0.395871,1.11022e-16,-1.11022e-16,-0.395871,3972.41,3613.6)">
                <circle cx="3188.98" cy="1898.24" r="208.849" style="fill:none;stroke:black;stroke-width:10.53px;"/>
            </g>
            <g transform="matrix(-0.197935,-0.342834,0.342834,-0.197935,821.098,2979.15)">
                <circle cx="3188.98" cy="1898.24" r="208.849" style="fill:none;stroke:black;stroke-width:10.53px;"/>
            </g>
            <g transform="matrix(-0.395871,1.11022e-16,-1.11022e-16,-0.395871,4208.63,3613.6)">
                <circle cx="3188.98" cy="1898.24" r="208.849" style="fill:none;stroke:black;stroke-width:10.53px;"/>
            </g>
            <g transform="matrix(-0.197935,-0.342834,0.342834,-0.197935,939.208,3183.72)">
                <circle cx="3188.98" cy="1898.24" r="208.849" style="fill:none;stroke:black;stroke-width:10.53px;"/>
            </g>
            <g transform="matrix(-0.395871,1.11022e-16,-1.11022e-16,-0.395871,4444.85,3613.6)">
                <circle cx="3188.98" cy="1898.24" r="208.849" style="fill:none;stroke:black;stroke-width:10.53px;"/>
            </g>
            <g transform="matrix(-0.197935,-0.342834,0.342834,-0.197935,1057.32,3388.29)">
                <circle cx="3188.98" cy="1898.24" r="208.849" style="fill:none;stroke:black;stroke-width:10.53px;"/>
            </g>
            <g transform="matrix(-0.197935,-0.342834,0.342834,-0.197935,1175.43,3592.86)">
                <circle cx="3188.98" cy="1898.24" r="208.849" style="fill:none;stroke:black;stroke-width:10.53px;"/>
            </g>
        </g>
    </g>
</svg>
