<?xml version="1.0" encoding="UTF-8" standalone="no"?>
<!DOCTYPE svg PUBLIC "-//W3C//DTD SVG 1.1//EN" "http://www.w3.org/Graphics/SVG/1.1/DTD/svg11.dtd">
<svg width="100%" height="100%" viewBox="0 0 3544 3544" version="1.1" xmlns="http://www.w3.org/2000/svg" xmlns:xlink="http://www.w3.org/1999/xlink" xml:space="preserve" xmlns:serif="http://www.serif.com/" style="fill-rule:evenodd;clip-rule:evenodd;stroke-linejoin:round;stroke-miterlimit:2;">
    <g id="Bottom">
        <g id="Cut">
            <g transform="matrix(11.1988,0,0,11.1988,-29819.4,-27436.5)">
                <path d="M2958.92,2716.44L2927.47,2716.44C2924.51,2716.44 2922.1,2718.85 2922.1,2721.81C2922.1,2724.77 2924.51,2727.18 2927.47,2727.18C2928.84,2727.18 2930.16,2727.72 2931.13,2728.69C2932.1,2729.66 2932.65,2730.98 2932.65,2732.36L2932.65,2737.63C2932.65,2739 2932.1,2740.32 2931.13,2741.29C2930.16,2742.26 2928.84,2742.81 2927.47,2742.81L2890.56,2742.81C2889.18,2742.81 2887.86,2742.26 2886.89,2741.29C2885.92,2740.32 2885.38,2739 2885.38,2737.63L2885.38,2732.36C2885.38,2729.49 2887.7,2727.18 2890.56,2727.18C2893.52,2727.18 2895.92,2724.77 2895.92,2721.81C2895.92,2718.85 2893.52,2716.44 2890.56,2716.44L2737.63,2716.44C2734.66,2716.44 2732.26,2718.85 2732.26,2721.81L2732.26,2727.08C2732.26,2729.94 2729.94,2732.26 2727.08,2732.26L2705.99,2732.26C2703.13,2732.26 2700.81,2729.94 2700.81,2727.08L2700.81,2705.99C2700.81,2703.13 2703.13,2700.81 2705.99,2700.81L2711.26,2700.81C2712.68,2700.81 2714.05,2700.24 2715.06,2699.24C2716.06,2698.23 2716.63,2696.87 2716.63,2695.44L2716.63,2595.25C2716.63,2593.83 2716.06,2592.46 2715.06,2591.45C2714.05,2590.45 2712.68,2589.88 2711.26,2589.88L2705.99,2589.88C2703.03,2589.88 2700.62,2592.28 2700.62,2595.25C2700.62,2596.62 2700.08,2597.94 2699.11,2598.91C2698.13,2599.88 2696.82,2600.43 2695.44,2600.43L2690.17,2600.43C2688.8,2600.43 2687.48,2599.88 2686.51,2598.91C2685.53,2597.94 2684.99,2596.62 2684.99,2595.25L2684.99,2495.05C2684.99,2493.68 2685.53,2492.36 2686.51,2491.39C2687.48,2490.42 2688.8,2489.87 2690.17,2489.87L2695.44,2489.87C2698.3,2489.87 2700.62,2492.19 2700.62,2495.05C2700.62,2496.48 2701.19,2497.84 2702.19,2498.85C2703.2,2499.86 2704.57,2500.42 2705.99,2500.42L2711.26,2500.42C2712.68,2500.42 2714.05,2499.86 2715.06,2498.85C2716.06,2497.84 2716.63,2496.48 2716.63,2495.05L2716.63,2474.15C2716.63,2474.12 2716.64,2474.1 2716.66,2474.08C2716.67,2474.06 2716.7,2474.05 2716.72,2474.05C2850.4,2474.16 2958.92,2582.67 2959.02,2716.35C2959.02,2716.37 2959.01,2716.4 2958.99,2716.41C2958.97,2716.43 2958.95,2716.44 2958.92,2716.44Z" style="fill:none;stroke:black;stroke-width:0.37px;"/>
            </g>
            <g transform="matrix(1.74021,0,0,1.74021,-4126.36,-661.152)">
                <circle cx="2716.24" cy="1263.01" r="11.877" style="fill:none;stroke:black;stroke-width:2.39px;stroke-linecap:round;stroke-miterlimit:1.5;"/>
            </g>
            <g transform="matrix(0.870105,1.50707,-1.50707,0.870105,1396.37,-2932.72)">
                <circle cx="2716.24" cy="1263.01" r="11.877" style="fill:none;stroke:black;stroke-width:2.39px;stroke-linecap:round;stroke-miterlimit:1.5;"/>
            </g>
            <g transform="matrix(0.102792,0,0,0.102792,323.3,2706.13)">
                <circle cx="2716.53" cy="2716.53" r="344.707" style="fill:none;stroke:black;stroke-width:40.54px;stroke-linecap:round;stroke-miterlimit:1.5;"/>
            </g>
        </g>
    </g>
</svg>
