<?xml version="1.0" encoding="UTF-8" standalone="no"?>
<!DOCTYPE svg PUBLIC "-//W3C//DTD SVG 1.1//EN" "http://www.w3.org/Graphics/SVG/1.1/DTD/svg11.dtd">
<svg width="100%" height="100%" viewBox="0 0 3544 3544" version="1.1" xmlns="http://www.w3.org/2000/svg" xmlns:xlink="http://www.w3.org/1999/xlink" xml:space="preserve" xmlns:serif="http://www.serif.com/" style="fill-rule:evenodd;clip-rule:evenodd;stroke-linejoin:round;stroke-miterlimit:2;">
    <g transform="matrix(1,0,0,1,-2114,268.834)">
        <g id="Top">
            <g id="Cut-2" serif:id="Cut 2">
                <path d="M4247.1,2714.45C4247.1,2715.03 4247.57,2715.49 4248.15,2715.49L4665.35,2715.49C4698.55,2715.49 4725.45,2742.4 4725.45,2775.59C4725.45,2808.78 4698.55,2835.69 4665.35,2835.69C4633.31,2835.69 4607.34,2861.66 4607.34,2893.7L4607.34,2952.76C4607.34,2968.14 4613.45,2982.9 4624.33,2993.78C4635.21,3004.66 4649.97,3010.77 4665.35,3010.77L5078.74,3010.77C5094.13,3010.77 5108.88,3004.66 5119.76,2993.78C5130.64,2982.9 5136.75,2968.14 5136.75,2952.76L5136.75,2893.7C5136.75,2878.32 5130.64,2863.56 5119.76,2852.68C5108.88,2841.8 5094.13,2835.69 5078.74,2835.69C5045.55,2835.69 5018.64,2808.78 5018.64,2775.59C5018.64,2742.4 5045.55,2715.49 5078.74,2715.49L5430.99,2715.49C5431.26,2715.49 5431.53,2715.38 5431.72,2715.19C5431.92,2714.99 5432.03,2714.73 5432.03,2714.45C5430.9,1217.38 4215.69,2.169 2718.62,1.042C2718.34,1.042 2718.08,1.152 2717.88,1.347C2717.69,1.543 2717.58,1.808 2717.58,2.084L2717.58,236.22C2717.58,252.159 2711.24,267.445 2699.97,278.715C2688.7,289.986 2673.42,296.317 2657.48,296.317L2598.43,296.317C2582.49,296.317 2567.2,289.986 2555.93,278.715C2544.66,267.445 2538.33,252.159 2538.33,236.22C2538.33,204.181 2512.36,178.207 2480.32,178.207L2421.26,178.207C2405.87,178.207 2391.12,184.319 2380.24,195.199C2369.36,206.078 2363.25,220.834 2363.25,236.22L2363.25,1225.7C2363.25,1226.02 2363.39,1226.32 2363.64,1226.51C2363.89,1226.71 2364.22,1226.79 2364.53,1226.71C2477.51,1200.07 2595.39,1185.97 2716.53,1185.97C3560.59,1185.97 4245.98,1870.66 4247.1,2714.45Z" style="fill:none;stroke:black;stroke-width:4.17px;"/>
            </g>
        </g>
    </g>
</svg>
