<?xml version="1.0" encoding="UTF-8" standalone="no"?>
<!DOCTYPE svg PUBLIC "-//W3C//DTD SVG 1.1//EN" "http://www.w3.org/Graphics/SVG/1.1/DTD/svg11.dtd">
<svg width="100%" height="100%" viewBox="0 0 3544 3544" version="1.1" xmlns="http://www.w3.org/2000/svg" xmlns:xlink="http://www.w3.org/1999/xlink" xml:space="preserve" xmlns:serif="http://www.serif.com/" style="fill-rule:evenodd;clip-rule:evenodd;stroke-linecap:round;stroke-linejoin:round;stroke-miterlimit:1.5;">
    <g id="Bottom">
    </g>
    <g id="Top">
        <g id="Cut-1" serif:id="Cut 1">
            <g transform="matrix(0.395871,0,0,0.395871,-187.444,647.69)">
                <circle cx="3188.98" cy="1898.24" r="208.849" style="fill:none;stroke:black;stroke-width:10.53px;"/>
            </g>
            <g transform="matrix(0.197935,0.342834,-0.342834,0.197935,2232.04,1132.39)">
                <circle cx="3188.98" cy="1898.24" r="208.849" style="fill:none;stroke:black;stroke-width:10.53px;"/>
            </g>
            <g transform="matrix(0.197935,0.342834,-0.342834,0.197935,1759.6,314.095)">
                <circle cx="3188.98" cy="1898.24" r="208.849" style="fill:none;stroke:black;stroke-width:10.53px;"/>
            </g>
            <g transform="matrix(0.395871,0,0,0.395871,-187.444,411.47)">
                <circle cx="3188.98" cy="1898.24" r="208.849" style="fill:none;stroke:black;stroke-width:10.53px;"/>
            </g>
            <g transform="matrix(0.197935,0.342834,-0.342834,0.197935,2436.61,1014.28)">
                <circle cx="3188.98" cy="1898.24" r="208.849" style="fill:none;stroke:black;stroke-width:10.53px;"/>
            </g>
            <g transform="matrix(0.197935,0.342834,-0.342834,0.197935,1964.17,195.984)">
                <circle cx="3188.98" cy="1898.24" r="208.849" style="fill:none;stroke:black;stroke-width:10.53px;"/>
            </g>
            <g transform="matrix(0.395871,0,0,0.395871,-187.444,175.249)">
                <circle cx="3188.98" cy="1898.24" r="208.849" style="fill:none;stroke:black;stroke-width:10.53px;"/>
            </g>
            <g transform="matrix(0.279923,-0.279923,0.279923,0.279923,-585.271,1288.01)">
                <circle cx="3188.98" cy="1898.24" r="208.849" style="fill:none;stroke:black;stroke-width:10.53px;"/>
            </g>
            <g transform="matrix(0.382382,0.102459,-0.102459,0.382382,1478.59,1108.02)">
                <circle cx="3188.98" cy="1898.24" r="208.849" style="fill:none;stroke:black;stroke-width:10.53px;"/>
            </g>
            <g transform="matrix(0.279923,-0.279923,0.279923,0.279923,-727.25,1429.99)">
                <circle cx="3188.98" cy="1898.24" r="208.849" style="fill:none;stroke:black;stroke-width:10.53px;"/>
            </g>
            <g transform="matrix(0.382382,0.102459,-0.102459,0.382382,1284.64,1056.05)">
                <circle cx="3188.98" cy="1898.24" r="208.849" style="fill:none;stroke:black;stroke-width:10.53px;"/>
            </g>
            <g transform="matrix(0.279923,-0.279923,0.279923,0.279923,-869.228,1571.97)">
                <circle cx="3188.98" cy="1898.24" r="208.849" style="fill:none;stroke:black;stroke-width:10.53px;"/>
            </g>
            <g transform="matrix(0.382382,0.102459,-0.102459,0.382382,1090.69,1004.08)">
                <circle cx="3188.98" cy="1898.24" r="208.849" style="fill:none;stroke:black;stroke-width:10.53px;"/>
            </g>
            <g transform="matrix(0.279923,-0.279923,0.279923,0.279923,-1011.21,1713.95)">
                <circle cx="3188.98" cy="1898.24" r="208.849" style="fill:none;stroke:black;stroke-width:10.53px;"/>
            </g>
            <g transform="matrix(0.382382,0.102459,-0.102459,0.382382,896.749,952.117)">
                <circle cx="3188.98" cy="1898.24" r="208.849" style="fill:none;stroke:black;stroke-width:10.53px;"/>
            </g>
            <g transform="matrix(0.395871,0,0,0.395871,107.832,175.249)">
                <circle cx="3188.98" cy="1898.24" r="208.849" style="fill:none;stroke:black;stroke-width:10.53px;"/>
            </g>
            <g transform="matrix(0.197935,0.342834,-0.342834,0.197935,2788.82,1151.88)">
                <circle cx="3188.98" cy="1898.24" r="208.849" style="fill:none;stroke:black;stroke-width:10.53px;"/>
            </g>
            <g transform="matrix(0.395871,0,0,0.395871,344.052,175.249)">
                <circle cx="3188.98" cy="1898.24" r="208.849" style="fill:none;stroke:black;stroke-width:10.53px;"/>
            </g>
            <g transform="matrix(0.197935,0.342834,-0.342834,0.197935,2906.93,1356.45)">
                <circle cx="3188.98" cy="1898.24" r="208.849" style="fill:none;stroke:black;stroke-width:10.53px;"/>
            </g>
            <g transform="matrix(0.197935,0.342834,-0.342834,0.197935,2641.18,896.166)">
                <circle cx="3188.98" cy="1898.24" r="208.849" style="fill:none;stroke:black;stroke-width:10.53px;"/>
            </g>
            <g transform="matrix(0.197935,0.342834,-0.342834,0.197935,2168.74,77.874)">
                <circle cx="3188.98" cy="1898.24" r="208.849" style="fill:none;stroke:black;stroke-width:10.53px;"/>
            </g>
            <g transform="matrix(0.395871,0,0,0.395871,-187.444,-60.9711)">
                <circle cx="3188.98" cy="1898.24" r="208.849" style="fill:none;stroke:black;stroke-width:10.53px;"/>
            </g>
            <g transform="matrix(0.395871,0,0,0.395871,107.832,-60.9711)">
                <circle cx="3188.98" cy="1898.24" r="208.849" style="fill:none;stroke:black;stroke-width:10.53px;"/>
            </g>
            <g transform="matrix(0.197935,0.342834,-0.342834,0.197935,2993.39,1033.77)">
                <circle cx="3188.98" cy="1898.24" r="208.849" style="fill:none;stroke:black;stroke-width:10.53px;"/>
            </g>
            <g transform="matrix(0.395871,0,0,0.395871,344.052,-60.9711)">
                <circle cx="3188.98" cy="1898.24" r="208.849" style="fill:none;stroke:black;stroke-width:10.53px;"/>
            </g>
            <g transform="matrix(0.197935,0.342834,-0.342834,0.197935,3111.5,1238.34)">
                <circle cx="3188.98" cy="1898.24" r="208.849" style="fill:none;stroke:black;stroke-width:10.53px;"/>
            </g>
            <g transform="matrix(0.197935,0.342834,-0.342834,0.197935,2845.76,778.056)">
                <circle cx="3188.98" cy="1898.24" r="208.849" style="fill:none;stroke:black;stroke-width:10.53px;"/>
            </g>
            <g transform="matrix(0.395871,0,0,0.395871,-423.665,-60.9711)">
                <circle cx="3188.98" cy="1898.24" r="208.849" style="fill:none;stroke:black;stroke-width:10.53px;"/>
            </g>
            <g transform="matrix(0.197935,0.342834,-0.342834,0.197935,2727.64,573.483)">
                <circle cx="3188.98" cy="1898.24" r="208.849" style="fill:none;stroke:black;stroke-width:10.53px;"/>
            </g>
            <g transform="matrix(0.395871,0,0,0.395871,-659.885,-60.9711)">
                <circle cx="3188.98" cy="1898.24" r="208.849" style="fill:none;stroke:black;stroke-width:10.53px;"/>
            </g>
            <g transform="matrix(0.197935,0.342834,-0.342834,0.197935,2609.53,368.91)">
                <circle cx="3188.98" cy="1898.24" r="208.849" style="fill:none;stroke:black;stroke-width:10.53px;"/>
            </g>
            <g transform="matrix(0.395871,0,0,0.395871,-896.106,-60.9711)">
                <circle cx="3188.98" cy="1898.24" r="208.849" style="fill:none;stroke:black;stroke-width:10.53px;"/>
            </g>
            <g transform="matrix(0.197935,0.342834,-0.342834,0.197935,2491.42,164.337)">
                <circle cx="3188.98" cy="1898.24" r="208.849" style="fill:none;stroke:black;stroke-width:10.53px;"/>
            </g>
            <g transform="matrix(0.197935,0.342834,-0.342834,0.197935,2373.31,-40.2362)">
                <circle cx="3188.98" cy="1898.24" r="208.849" style="fill:none;stroke:black;stroke-width:10.53px;"/>
            </g>
        </g>
    </g>
</svg>
