<?xml version="1.0" encoding="UTF-8" standalone="no"?>
<!DOCTYPE svg PUBLIC "-//W3C//DTD SVG 1.1//EN" "http://www.w3.org/Graphics/SVG/1.1/DTD/svg11.dtd">
<svg width="100%" height="100%" viewBox="0 0 3544 3544" version="1.1" xmlns="http://www.w3.org/2000/svg" xmlns:xlink="http://www.w3.org/1999/xlink" xml:space="preserve" xmlns:serif="http://www.serif.com/" style="fill-rule:evenodd;clip-rule:evenodd;stroke-linejoin:round;stroke-miterlimit:2;">
    <g id="Top">
        <g id="Engraving">
            <g transform="matrix(1,0,0,1,-2114,268.834)">
                <path d="M2532.71,1089.7L3194.87,427.546C3198.12,424.294 3198.12,419.013 3194.87,415.761C3191.62,412.509 3186.34,412.509 3183.08,415.761L2520.93,1077.92C2517.68,1081.17 2517.68,1086.45 2520.93,1089.7C2524.18,1092.95 2529.46,1092.95 2532.71,1089.7Z"/>
            </g>
            <g transform="matrix(1,0,0,1,-2114,268.834)">
                <path d="M4033.51,1743.92L4938.03,1986.29C4942.47,1987.48 4947.04,1984.84 4948.23,1980.4C4949.42,1975.96 4946.78,1971.38 4942.34,1970.19L4037.82,1727.83C4033.38,1726.63 4028.8,1729.28 4027.61,1733.72C4026.42,1738.16 4029.06,1742.73 4033.51,1743.92Z"/>
            </g>
            <g transform="matrix(-1,3.88578e-16,-3.88578e-16,-1,3319.07,5701.91)">
                <path d="M2288.31,4788.34C2280.87,4784.59 2273.26,4780.97 2265.46,4777.49C2262.31,4776.08 2258.61,4777.5 2257.2,4780.65C2255.8,4783.8 2257.21,4787.5 2260.36,4788.9C2267.98,4792.3 2275.41,4795.84 2282.68,4799.5C2285.75,4801.06 2289.52,4799.82 2291.07,4796.74C2292.62,4793.66 2291.39,4789.9 2288.31,4788.34ZM2332.27,4813.47C2325.26,4808.94 2318.03,4804.55 2310.61,4800.32C2307.62,4798.61 2303.8,4799.65 2302.09,4802.65C2300.38,4805.64 2301.42,4809.46 2304.42,4811.17C2311.64,4815.29 2318.66,4819.56 2325.49,4823.97C2328.39,4825.84 2332.26,4825.01 2334.13,4822.11C2336,4819.22 2335.17,4815.34 2332.27,4813.47ZM2373.16,4843.5C2366.72,4838.12 2360.05,4832.9 2353.17,4827.85C2350.39,4825.81 2346.47,4826.42 2344.43,4829.2C2342.39,4831.98 2342.99,4835.89 2345.77,4837.93C2352.45,4842.83 2358.91,4847.88 2365.15,4853.09C2367.8,4855.31 2371.74,4854.95 2373.95,4852.3C2376.16,4849.65 2375.81,4845.71 2373.16,4843.5ZM2409.91,4878.59C2404.22,4872.35 2398.29,4866.3 2392.12,4860.41C2389.63,4858.03 2385.67,4858.13 2383.28,4860.62C2380.9,4863.12 2381,4867.08 2383.49,4869.46C2389.45,4875.14 2395.18,4880.99 2400.68,4887.01C2403,4889.56 2406.96,4889.74 2409.51,4887.41C2412.05,4885.09 2412.23,4881.13 2409.91,4878.59ZM2441.45,4918.47C2436.67,4911.45 2431.65,4904.62 2426.39,4897.96C2424.24,4895.26 2420.31,4894.8 2417.61,4896.94C2414.9,4899.08 2414.44,4903.01 2416.58,4905.72C2421.66,4912.14 2426.5,4918.73 2431.11,4925.5C2433.05,4928.35 2436.94,4929.09 2439.79,4927.15C2442.65,4925.21 2443.39,4921.32 2441.45,4918.47ZM2466.99,4962.43C2463.23,4954.77 2459.24,4947.3 2455,4940C2453.26,4937.02 2449.44,4936 2446.45,4937.73C2443.47,4939.47 2442.46,4943.3 2444.19,4946.28C2448.28,4953.32 2452.14,4960.54 2455.77,4967.93C2457.29,4971.03 2461.03,4972.31 2464.13,4970.79C2467.23,4969.27 2468.51,4965.53 2466.99,4962.43ZM2486.24,5009.43C2483.52,5001.32 2480.58,4993.39 2477.4,4985.62C2476.09,4982.43 2472.44,4980.89 2469.25,4982.2C2466.05,4983.51 2464.52,4987.16 2465.83,4990.35C2468.9,4997.87 2471.76,5005.55 2474.39,5013.4C2475.49,5016.67 2479.03,5018.44 2482.3,5017.34C2485.57,5016.25 2487.34,5012.7 2486.24,5009.43Z"/>
            </g>
            <g transform="matrix(-0.5,-0.866025,0.866025,-0.5,-391.784,6696.23)">
                <path d="M2288.31,4788.34C2280.87,4784.59 2273.26,4780.97 2265.46,4777.49C2262.31,4776.08 2258.61,4777.5 2257.2,4780.65C2255.8,4783.8 2257.21,4787.5 2260.36,4788.9C2267.98,4792.3 2275.41,4795.84 2282.68,4799.5C2285.75,4801.06 2289.52,4799.82 2291.07,4796.74C2292.62,4793.66 2291.39,4789.9 2288.31,4788.34ZM2332.27,4813.47C2325.26,4808.94 2318.03,4804.55 2310.61,4800.32C2307.62,4798.61 2303.8,4799.65 2302.09,4802.65C2300.38,4805.64 2301.42,4809.46 2304.42,4811.17C2311.64,4815.29 2318.66,4819.56 2325.49,4823.97C2328.39,4825.84 2332.26,4825.01 2334.13,4822.11C2336,4819.22 2335.17,4815.34 2332.27,4813.47ZM2373.16,4843.5C2366.72,4838.12 2360.05,4832.9 2353.17,4827.85C2350.39,4825.81 2346.47,4826.42 2344.43,4829.2C2342.39,4831.98 2342.99,4835.89 2345.77,4837.93C2352.45,4842.83 2358.91,4847.88 2365.15,4853.09C2367.8,4855.31 2371.74,4854.95 2373.95,4852.3C2376.16,4849.65 2375.81,4845.71 2373.16,4843.5ZM2409.91,4878.59C2404.22,4872.35 2398.29,4866.3 2392.12,4860.41C2389.63,4858.03 2385.67,4858.13 2383.28,4860.62C2380.9,4863.12 2381,4867.08 2383.49,4869.46C2389.45,4875.14 2395.18,4880.99 2400.68,4887.01C2403,4889.56 2406.96,4889.74 2409.51,4887.41C2412.05,4885.09 2412.23,4881.13 2409.91,4878.59ZM2441.45,4918.47C2436.67,4911.45 2431.65,4904.62 2426.39,4897.96C2424.24,4895.26 2420.31,4894.8 2417.61,4896.94C2414.9,4899.08 2414.44,4903.01 2416.58,4905.72C2421.66,4912.14 2426.5,4918.73 2431.11,4925.5C2433.05,4928.35 2436.94,4929.09 2439.79,4927.15C2442.65,4925.21 2443.39,4921.32 2441.45,4918.47ZM2466.99,4962.43C2463.23,4954.77 2459.24,4947.3 2455,4940C2453.26,4937.02 2449.44,4936 2446.45,4937.73C2443.47,4939.47 2442.46,4943.3 2444.19,4946.28C2448.28,4953.32 2452.14,4960.54 2455.77,4967.93C2457.29,4971.03 2461.03,4972.31 2464.13,4970.79C2467.23,4969.27 2468.51,4965.53 2466.99,4962.43ZM2486.24,5009.43C2483.52,5001.32 2480.58,4993.39 2477.4,4985.62C2476.09,4982.43 2472.44,4980.89 2469.25,4982.2C2466.05,4983.51 2464.52,4987.16 2465.83,4990.35C2468.9,4997.87 2471.76,5005.55 2474.39,5013.4C2475.49,5016.67 2479.03,5018.44 2482.3,5017.34C2485.57,5016.25 2487.34,5012.7 2486.24,5009.43Z"/>
            </g>
            <g transform="matrix(-1,-3.67394e-16,3.67394e-16,-1,3323.07,5652.91)">
                <path d="M2677.29,5354.37L2689.89,5321.56L2694.57,5321.56L2708,5354.37L2703.05,5354.37L2699.22,5344.43L2685.51,5344.43L2681.9,5354.37L2677.29,5354.37ZM2686.76,5340.9L2697.88,5340.9L2694.46,5331.81C2693.41,5329.05 2692.64,5326.78 2692.13,5325.01C2691.71,5327.11 2691.12,5329.2 2690.36,5331.27L2686.76,5340.9Z" style="fill-rule:nonzero;"/>
            </g>
            <g transform="matrix(5.51091e-16,-1,1,5.51091e-16,-2065,5651.65)">
                <path d="M2680.72,5354.37L2680.72,5321.56L2693.02,5321.56C2695.53,5321.56 2697.54,5321.89 2699.06,5322.56C2700.57,5323.22 2701.76,5324.24 2702.61,5325.62C2703.47,5327 2703.9,5328.45 2703.9,5329.95C2703.9,5331.36 2703.52,5332.68 2702.76,5333.91C2702,5335.15 2700.85,5336.15 2699.31,5336.91C2701.3,5337.49 2702.82,5338.49 2703.89,5339.89C2704.96,5341.29 2705.49,5342.95 2705.49,5344.86C2705.49,5346.39 2705.16,5347.82 2704.52,5349.14C2703.87,5350.46 2703.07,5351.48 2702.11,5352.2C2701.16,5352.91 2699.96,5353.45 2698.52,5353.82C2697.08,5354.19 2695.32,5354.37 2693.23,5354.37L2680.72,5354.37ZM2685.06,5335.35L2692.15,5335.35C2694.08,5335.35 2695.46,5335.22 2696.29,5334.97C2697.4,5334.64 2698.23,5334.09 2698.79,5333.33C2699.35,5332.57 2699.63,5331.62 2699.63,5330.47C2699.63,5329.38 2699.37,5328.42 2698.84,5327.59C2698.32,5326.76 2697.58,5326.2 2696.61,5325.89C2695.64,5325.59 2693.97,5325.43 2691.62,5325.43L2685.06,5325.43L2685.06,5335.35ZM2685.06,5350.5L2693.23,5350.5C2694.63,5350.5 2695.61,5350.44 2696.18,5350.34C2697.18,5350.16 2698.01,5349.86 2698.69,5349.44C2699.36,5349.03 2699.91,5348.42 2700.34,5347.62C2700.78,5346.82 2700.99,5345.9 2700.99,5344.86C2700.99,5343.63 2700.68,5342.57 2700.05,5341.67C2699.43,5340.77 2698.56,5340.13 2697.44,5339.77C2696.33,5339.4 2694.73,5339.22 2692.64,5339.22L2685.06,5339.22L2685.06,5350.5Z" style="fill-rule:nonzero;"/>
            </g>
            <g transform="matrix(-1.09186,1.33714e-16,-8.71879e-17,-0.711943,3569.22,2258.92)">
                <path d="M2716.83,1151.34L2743.88,1222.68L2689.79,1222.68L2716.83,1151.34Z"/>
            </g>
            <g transform="matrix(-0.545928,-0.945575,0.616561,-0.355972,2715,5191.37)">
                <path d="M2716.83,1151.34L2743.88,1222.68L2689.79,1222.68L2716.83,1151.34Z"/>
            </g>
            <g transform="matrix(1,0,0,1,-2114,268.834)">
                <path d="M3180.64,1261.49L3180.64,1398.99C3180.64,1403.59 3184.38,1407.32 3188.98,1407.32C3193.58,1407.32 3197.31,1403.59 3197.31,1398.99L3197.31,1261.49L3188.98,1269.82L3197.31,1261.49L3197.31,421.654C3197.31,417.051 3193.58,413.32 3188.98,413.32L2244.09,413.32C2239.49,413.32 2235.76,417.054 2235.76,421.654C2235.76,426.253 2239.49,429.987 2244.09,429.987L3180.64,429.987C3180.64,517.309 3180.64,1261.49 3180.64,1261.49Z"/>
            </g>
            <g transform="matrix(1,0,0,1,-2114,268.834)">
                <path d="M3643.25,1645.59L4464.69,1171.33C4464.69,1171.33 4928.8,1975.19 4928.8,1975.19C4928.8,1975.19 4208.66,2390.96 4208.66,2390.96C4208.66,2390.96 4116.25,2444.32 4116.25,2444.32C4112.26,2446.62 4110.9,2451.72 4113.2,2455.7C4115.5,2459.68 4120.6,2461.05 4124.58,2458.75L4944.35,1985.46C4948.33,1983.16 4949.7,1978.06 4947.4,1974.07L4474.96,1155.78C4472.66,1151.8 4467.56,1150.43 4463.57,1152.73L3634.92,1631.16C3630.93,1633.46 3629.57,1638.56 3631.87,1642.54C3634.17,1646.52 3639.27,1647.89 3643.25,1645.59Z"/>
            </g>
        </g>
    </g>
</svg>
