<?xml version="1.0" encoding="UTF-8" standalone="no"?>
<!DOCTYPE svg PUBLIC "-//W3C//DTD SVG 1.1//EN" "http://www.w3.org/Graphics/SVG/1.1/DTD/svg11.dtd">
<svg width="100%" height="100%" viewBox="0 0 3544 3544" version="1.1" xmlns="http://www.w3.org/2000/svg" xmlns:xlink="http://www.w3.org/1999/xlink" xml:space="preserve" xmlns:serif="http://www.serif.com/" style="fill-rule:evenodd;clip-rule:evenodd;stroke-linejoin:round;stroke-miterlimit:2;">
    <g id="Bottom">
        <g id="Cut">
            <g transform="matrix(11.1988,0,0,11.1988,-27321.3,-27406.6)">
                <path d="M2716.44,2474.15L2716.44,2495.05C2716.44,2496.43 2715.9,2497.75 2714.93,2498.72C2713.95,2499.69 2712.64,2500.24 2711.26,2500.24L2705.99,2500.24C2703.13,2500.24 2700.81,2497.92 2700.81,2495.05C2700.81,2493.63 2700.24,2492.27 2699.24,2491.26C2698.23,2490.25 2696.87,2489.69 2695.44,2489.69L2690.17,2489.69C2688.74,2489.69 2687.38,2490.25 2686.37,2491.26C2685.37,2492.27 2684.8,2493.63 2684.8,2495.05L2684.8,2595.25C2684.8,2596.67 2685.37,2598.04 2686.37,2599.04C2687.38,2600.05 2688.74,2600.62 2690.17,2600.62L2695.44,2600.62C2698.41,2600.62 2700.81,2598.21 2700.81,2595.25C2700.81,2593.87 2701.35,2592.56 2702.33,2591.59C2703.3,2590.61 2704.62,2590.07 2705.99,2590.07L2711.26,2590.07C2712.64,2590.07 2713.95,2590.61 2714.93,2591.59C2715.9,2592.56 2716.44,2593.87 2716.44,2595.25L2716.44,2695.44C2716.44,2696.82 2715.9,2698.13 2714.93,2699.11C2713.95,2700.08 2712.64,2700.62 2711.26,2700.62L2705.99,2700.62C2704.57,2700.62 2703.2,2701.19 2702.19,2702.19C2701.19,2703.2 2700.62,2704.57 2700.62,2705.99L2700.62,2716.35C2700.62,2716.4 2700.58,2716.44 2700.53,2716.44L2542.51,2716.44C2539.65,2716.44 2537.34,2714.12 2537.34,2711.26C2537.34,2708.4 2539.65,2706.08 2542.51,2706.08C2543.94,2706.08 2545.3,2705.52 2546.31,2704.51C2547.32,2703.5 2547.88,2702.14 2547.88,2700.72L2547.88,2695.44C2547.88,2694.02 2547.32,2692.65 2546.31,2691.65C2545.3,2690.64 2543.94,2690.08 2542.51,2690.08L2505.6,2690.08C2504.18,2690.08 2502.81,2690.64 2501.81,2691.65C2500.8,2692.65 2500.24,2694.02 2500.24,2695.44L2500.24,2700.72C2500.24,2703.68 2502.64,2706.08 2505.6,2706.08C2508.46,2706.08 2510.78,2708.4 2510.78,2711.26C2510.78,2712.64 2510.24,2713.95 2509.26,2714.93C2508.29,2715.9 2506.97,2716.44 2505.6,2716.44L2474.15,2716.44C2474.12,2716.44 2474.1,2716.43 2474.08,2716.41C2474.06,2716.4 2474.05,2716.37 2474.05,2716.35C2474.16,2582.67 2582.67,2474.16 2716.35,2474.05C2716.37,2474.05 2716.4,2474.06 2716.41,2474.08C2716.43,2474.1 2716.44,2474.12 2716.44,2474.15Z" style="fill:none;stroke:black;stroke-width:0.37px;"/>
            </g>
            <g transform="matrix(0.870105,-1.50707,1.50707,0.870105,-2420.03,5286.77)">
                <circle cx="2716.24" cy="1263.01" r="11.877" style="fill:none;stroke:black;stroke-width:2.39px;stroke-linecap:round;stroke-miterlimit:1.5;"/>
            </g>
        </g>
    </g>
</svg>
