<?xml version="1.0" encoding="UTF-8" standalone="no"?>
<!DOCTYPE svg PUBLIC "-//W3C//DTD SVG 1.1//EN" "http://www.w3.org/Graphics/SVG/1.1/DTD/svg11.dtd">
<svg width="100%" height="100%" viewBox="0 0 3544 3544" version="1.1" xmlns="http://www.w3.org/2000/svg" xmlns:xlink="http://www.w3.org/1999/xlink" xml:space="preserve" xmlns:serif="http://www.serif.com/" style="fill-rule:evenodd;clip-rule:evenodd;stroke-linecap:round;stroke-linejoin:round;stroke-miterlimit:1.5;">
    <g id="Bottom">
    </g>
    <g id="Top">
        <g id="Cut-1" serif:id="Cut 1">
            <g transform="matrix(0.197935,-0.342834,0.342834,0.197935,681.094,2530.64)">
                <circle cx="3188.98" cy="1898.24" r="208.849" style="fill:none;stroke:black;stroke-width:10.53px;"/>
            </g>
            <g transform="matrix(0.395871,0,0,0.395871,1365.71,677.657)">
                <circle cx="3188.98" cy="1898.24" r="208.849" style="fill:none;stroke:black;stroke-width:10.53px;"/>
            </g>
            <g transform="matrix(0.197935,-0.342834,0.342834,0.197935,208.653,3348.93)">
                <circle cx="3188.98" cy="1898.24" r="208.849" style="fill:none;stroke:black;stroke-width:10.53px;"/>
            </g>
            <g transform="matrix(0.197935,-0.342834,0.342834,0.197935,476.521,2412.53)">
                <circle cx="3188.98" cy="1898.24" r="208.849" style="fill:none;stroke:black;stroke-width:10.53px;"/>
            </g>
            <g transform="matrix(0.395871,0,0,0.395871,1365.71,441.437)">
                <circle cx="3188.98" cy="1898.24" r="208.849" style="fill:none;stroke:black;stroke-width:10.53px;"/>
            </g>
            <g transform="matrix(0.197935,-0.342834,0.342834,0.197935,4.08016,3230.82)">
                <circle cx="3188.98" cy="1898.24" r="208.849" style="fill:none;stroke:black;stroke-width:10.53px;"/>
            </g>
            <g transform="matrix(-0.102459,-0.382382,0.382382,-0.102459,1036.72,3195.33)">
                <circle cx="3188.98" cy="1898.24" r="208.849" style="fill:none;stroke:black;stroke-width:10.53px;"/>
            </g>
            <g transform="matrix(-0.102459,-0.382382,0.382382,-0.102459,1088.68,3389.28)">
                <circle cx="3188.98" cy="1898.24" r="208.849" style="fill:none;stroke:black;stroke-width:10.53px;"/>
            </g>
            <g transform="matrix(-0.102459,-0.382382,0.382382,-0.102459,1140.65,3583.22)">
                <circle cx="3188.98" cy="1898.24" r="208.849" style="fill:none;stroke:black;stroke-width:10.53px;"/>
            </g>
            <g transform="matrix(-0.102459,-0.382382,0.382382,-0.102459,1192.62,3777.17)">
                <circle cx="3188.98" cy="1898.24" r="208.849" style="fill:none;stroke:black;stroke-width:10.53px;"/>
            </g>
            <g transform="matrix(0.197935,-0.342834,0.342834,0.197935,419.586,2038.7)">
                <circle cx="3188.98" cy="1898.24" r="208.849" style="fill:none;stroke:black;stroke-width:10.53px;"/>
            </g>
            <g transform="matrix(0.197935,-0.342834,0.342834,0.197935,537.696,1834.13)">
                <circle cx="3188.98" cy="1898.24" r="208.849" style="fill:none;stroke:black;stroke-width:10.53px;"/>
            </g>
            <g transform="matrix(0.197935,-0.342834,0.342834,0.197935,271.948,2294.42)">
                <circle cx="3188.98" cy="1898.24" r="208.849" style="fill:none;stroke:black;stroke-width:10.53px;"/>
            </g>
            <g transform="matrix(0.395871,0,0,0.395871,1365.71,205.217)">
                <circle cx="3188.98" cy="1898.24" r="208.849" style="fill:none;stroke:black;stroke-width:10.53px;"/>
            </g>
            <g transform="matrix(0.197935,-0.342834,0.342834,0.197935,-200.493,3112.71)">
                <circle cx="3188.98" cy="1898.24" r="208.849" style="fill:none;stroke:black;stroke-width:10.53px;"/>
            </g>
            <g transform="matrix(0.197935,-0.342834,0.342834,0.197935,215.013,1920.59)">
                <circle cx="3188.98" cy="1898.24" r="208.849" style="fill:none;stroke:black;stroke-width:10.53px;"/>
            </g>
            <g transform="matrix(0.197935,-0.342834,0.342834,0.197935,333.123,1716.02)">
                <circle cx="3188.98" cy="1898.24" r="208.849" style="fill:none;stroke:black;stroke-width:10.53px;"/>
            </g>
            <g transform="matrix(0.197935,-0.342834,0.342834,0.197935,67.3752,2176.31)">
                <circle cx="3188.98" cy="1898.24" r="208.849" style="fill:none;stroke:black;stroke-width:10.53px;"/>
            </g>
            <g transform="matrix(0.197935,-0.342834,0.342834,0.197935,-50.735,2380.88)">
                <circle cx="3188.98" cy="1898.24" r="208.849" style="fill:none;stroke:black;stroke-width:10.53px;"/>
            </g>
            <g transform="matrix(0.197935,-0.342834,0.342834,0.197935,-168.845,2585.46)">
                <circle cx="3188.98" cy="1898.24" r="208.849" style="fill:none;stroke:black;stroke-width:10.53px;"/>
            </g>
            <g transform="matrix(0.197935,-0.342834,0.342834,0.197935,-286.955,2790.03)">
                <circle cx="3188.98" cy="1898.24" r="208.849" style="fill:none;stroke:black;stroke-width:10.53px;"/>
            </g>
            <g transform="matrix(0.395871,0,0,0.395871,1365.71,-31.004)">
                <circle cx="3188.98" cy="1898.24" r="208.849" style="fill:none;stroke:black;stroke-width:10.53px;"/>
            </g>
            <g transform="matrix(0.197935,-0.342834,0.342834,0.197935,-405.066,2994.6)">
                <circle cx="3188.98" cy="1898.24" r="208.849" style="fill:none;stroke:black;stroke-width:10.53px;"/>
            </g>
        </g>
    </g>
</svg>
