<?xml version="1.0" encoding="UTF-8" standalone="no"?>
<!DOCTYPE svg PUBLIC "-//W3C//DTD SVG 1.1//EN" "http://www.w3.org/Graphics/SVG/1.1/DTD/svg11.dtd">
<svg width="100%" height="100%" viewBox="0 0 3544 3544" version="1.1" xmlns="http://www.w3.org/2000/svg" xmlns:xlink="http://www.w3.org/1999/xlink" xml:space="preserve" xmlns:serif="http://www.serif.com/" style="fill-rule:evenodd;clip-rule:evenodd;stroke-linejoin:round;stroke-miterlimit:2;">
    <g id="Top">
        <g id="Engraving">
            <g transform="matrix(1,0,0,1,384.039,298.801)">
                <path d="M1215.75,2062.31L973.379,1157.79C972.189,1153.35 967.616,1150.71 963.173,1151.9C958.73,1153.09 956.09,1157.66 957.281,1162.11L1199.65,2066.63C1200.84,2071.07 1205.41,2073.71 1209.85,2072.52C1214.3,2071.33 1216.93,2066.76 1215.75,2062.31Z"/>
            </g>
            <g transform="matrix(-0.5,0.866025,-0.866025,-0.5,6811.43,2021.02)">
                <path d="M2466.99,4962.43C2463.23,4954.77 2459.24,4947.3 2455,4940C2453.26,4937.02 2449.44,4936 2446.45,4937.73C2443.47,4939.47 2442.46,4943.3 2444.19,4946.28C2448.28,4953.32 2452.14,4960.54 2455.77,4967.93C2457.29,4971.03 2461.03,4972.31 2464.13,4970.79C2467.23,4969.27 2468.51,4965.53 2466.99,4962.43ZM2441.45,4918.47C2436.67,4911.45 2431.65,4904.62 2426.39,4897.96C2424.24,4895.26 2420.31,4894.8 2417.61,4896.94C2414.9,4899.08 2414.44,4903.01 2416.58,4905.72C2421.66,4912.14 2426.5,4918.73 2431.11,4925.5C2433.05,4928.35 2436.94,4929.09 2439.79,4927.15C2442.65,4925.21 2443.39,4921.32 2441.45,4918.47ZM2486.24,5009.43C2483.52,5001.32 2480.58,4993.39 2477.4,4985.62C2476.09,4982.43 2472.44,4980.89 2469.25,4982.2C2466.05,4983.51 2464.52,4987.16 2465.83,4990.35C2468.9,4997.87 2471.76,5005.55 2474.39,5013.4C2475.49,5016.67 2479.03,5018.44 2482.3,5017.34C2485.57,5016.25 2487.34,5012.7 2486.24,5009.43ZM2409.91,4878.59C2404.22,4872.35 2398.29,4866.3 2392.12,4860.41C2389.63,4858.03 2385.67,4858.13 2383.28,4860.62C2380.9,4863.12 2381,4867.08 2383.49,4869.46C2389.45,4875.14 2395.18,4880.99 2400.68,4887.01C2403,4889.56 2406.96,4889.74 2409.51,4887.41C2412.05,4885.09 2412.23,4881.13 2409.91,4878.59ZM2373.16,4843.5C2366.72,4838.12 2360.05,4832.9 2353.17,4827.85C2350.39,4825.81 2346.47,4826.42 2344.43,4829.2C2342.39,4831.98 2342.99,4835.89 2345.77,4837.93C2352.45,4842.83 2358.91,4847.88 2365.15,4853.09C2367.8,4855.31 2371.74,4854.95 2373.95,4852.3C2376.16,4849.65 2375.81,4845.71 2373.16,4843.5ZM2332.27,4813.47C2325.26,4808.94 2318.03,4804.55 2310.61,4800.32C2307.62,4798.61 2303.8,4799.65 2302.09,4802.65C2300.38,4805.64 2301.42,4809.46 2304.42,4811.17C2311.64,4815.29 2318.66,4819.56 2325.49,4823.97C2328.39,4825.84 2332.26,4825.01 2334.13,4822.11C2336,4819.22 2335.17,4815.34 2332.27,4813.47ZM2288.31,4788.34C2280.87,4784.59 2273.26,4780.97 2265.46,4777.49C2262.31,4776.08 2258.61,4777.5 2257.2,4780.65C2255.8,4783.8 2257.21,4787.5 2260.36,4788.9C2267.98,4792.3 2275.41,4795.84 2282.68,4799.5C2285.75,4801.06 2289.52,4799.82 2291.07,4796.74C2292.62,4793.66 2291.39,4789.9 2288.31,4788.34Z"/>
            </g>
            <g transform="matrix(-1.83697e-16,1,-1,-1.83697e-16,5768.11,294.801)">
                <path d="M2679.63,5354.37L2679.63,5321.56L2690.93,5321.56C2693.48,5321.56 2695.43,5321.72 2696.77,5322.03C2698.65,5322.46 2700.26,5323.25 2701.59,5324.38C2703.32,5325.84 2704.61,5327.71 2705.47,5329.99C2706.33,5332.26 2706.75,5334.86 2706.75,5337.78C2706.75,5340.28 2706.46,5342.48 2705.88,5344.41C2705.3,5346.33 2704.55,5347.93 2703.64,5349.19C2702.73,5350.45 2701.74,5351.44 2700.66,5352.16C2699.57,5352.89 2698.27,5353.44 2696.74,5353.81C2695.21,5354.18 2693.45,5354.37 2691.47,5354.37L2679.63,5354.37ZM2683.97,5350.5L2690.98,5350.5C2693.14,5350.5 2694.84,5350.3 2696.07,5349.89C2697.3,5349.49 2698.28,5348.92 2699.01,5348.19C2700.04,5347.16 2700.84,5345.78 2701.42,5344.04C2701.99,5342.3 2702.28,5340.19 2702.28,5337.72C2702.28,5334.29 2701.72,5331.65 2700.59,5329.81C2699.46,5327.96 2698.09,5326.73 2696.48,5326.1C2695.32,5325.66 2693.45,5325.43 2690.87,5325.43L2683.97,5325.43L2683.97,5350.5Z" style="fill-rule:nonzero;"/>
            </g>
            <g transform="matrix(-1,-3.67394e-16,3.67394e-16,-1,5766.85,5682.87)">
                <path d="M2677.29,5354.37L2689.89,5321.56L2694.57,5321.56L2708,5354.37L2703.05,5354.37L2699.22,5344.43L2685.51,5344.43L2681.9,5354.37L2677.29,5354.37ZM2686.76,5340.9L2697.88,5340.9L2694.46,5331.81C2693.41,5329.05 2692.64,5326.78 2692.13,5325.01C2691.71,5327.11 2691.12,5329.2 2690.36,5331.27L2686.76,5340.9Z" style="fill-rule:nonzero;"/>
            </g>
            <g transform="matrix(-0.545928,0.945575,-0.616561,-0.355972,3954.8,82.8902)">
                <path d="M2716.83,1151.34L2743.88,1222.68L2689.79,1222.68L2716.83,1151.34Z"/>
            </g>
            <g transform="matrix(1,0,0,1,384.039,298.801)">
                <path d="M1307.75,2439.08L504.272,1975.19C504.272,1975.19 968.38,1171.33 968.38,1171.33C968.38,1171.33 1736.45,1614.78 1736.45,1614.78C1740.43,1617.08 1745.53,1615.71 1747.83,1611.73C1750.13,1607.74 1748.77,1602.64 1744.78,1600.34L969.497,1152.73C965.511,1150.43 960.414,1151.8 958.113,1155.78L485.672,1974.07C483.371,1978.06 484.737,1983.16 488.722,1985.46L1299.42,2453.51C1303.4,2455.81 1308.5,2454.45 1310.8,2450.46C1313.1,2446.48 1311.74,2441.38 1307.75,2439.08Z"/>
            </g>
            <g transform="matrix(1,0,0,1,384.039,298.801)">
                <path d="M2252.43,1346.92L2252.43,429.987C2252.43,429.987 2461.12,429.987 2461.12,429.987C2465.72,429.987 2469.45,426.253 2469.45,421.654C2469.45,417.054 2465.72,413.32 2461.12,413.32L2244.09,413.32C2239.49,413.32 2235.76,417.051 2235.76,421.654L2235.76,1346.92C2235.76,1351.52 2239.49,1355.25 2244.09,1355.25C2248.69,1355.25 2252.43,1351.52 2252.43,1346.92Z"/>
            </g>
        </g>
    </g>
</svg>
