<?xml version="1.0" encoding="UTF-8" standalone="no"?>
<!DOCTYPE svg PUBLIC "-//W3C//DTD SVG 1.1//EN" "http://www.w3.org/Graphics/SVG/1.1/DTD/svg11.dtd">
<svg width="100%" height="100%" viewBox="0 0 3544 3544" version="1.1" xmlns="http://www.w3.org/2000/svg" xmlns:xlink="http://www.w3.org/1999/xlink" xml:space="preserve" xmlns:serif="http://www.serif.com/" style="fill-rule:evenodd;clip-rule:evenodd;stroke-linejoin:round;stroke-miterlimit:2;">
    <g transform="matrix(1,0,0,1,384.039,298.801)">
        <g id="Top">
            <g id="Cut-2" serif:id="Cut 2">
                <path d="M1184.93,2715.49L767.717,2715.49C735.677,2715.49 709.703,2689.52 709.703,2657.48C709.703,2625.44 735.677,2599.47 767.717,2599.47C783.655,2599.47 798.941,2593.14 810.211,2581.87C821.482,2570.6 827.813,2555.31 827.813,2539.37L827.813,2480.32C827.813,2464.38 821.482,2449.09 810.211,2437.82C798.941,2426.55 783.655,2420.22 767.717,2420.22L354.331,2420.22C338.392,2420.22 323.106,2426.55 311.836,2437.82C300.566,2449.09 294.234,2464.38 294.234,2480.32L294.234,2539.37C294.234,2572.56 321.14,2599.47 354.331,2599.47C386.371,2599.47 412.344,2625.44 412.344,2657.48C412.344,2672.87 406.232,2687.62 395.352,2698.5C384.473,2709.38 369.717,2715.49 354.331,2715.49L2.084,2715.49C1.808,2715.49 1.543,2715.38 1.347,2715.19C1.152,2714.99 1.042,2714.73 1.042,2714.45C2.169,1217.38 1217.38,2.169 2714.45,1.042C2714.73,1.042 2714.99,1.152 2715.19,1.347C2715.38,1.543 2715.49,1.808 2715.49,2.084L2715.49,236.22C2715.49,251.607 2709.38,266.363 2698.5,277.242C2687.62,288.122 2672.87,294.234 2657.48,294.234L2598.43,294.234C2566.39,294.234 2540.41,268.26 2540.41,236.22C2540.41,220.282 2534.08,204.996 2522.81,193.726C2511.54,182.455 2496.25,176.124 2480.32,176.124L2421.26,176.124C2405.32,176.124 2390.03,182.455 2378.76,193.726C2367.49,204.996 2361.16,220.282 2361.16,236.22L2361.16,1226.69C2361.16,1227.17 2360.83,1227.59 2360.36,1227.7C1687.76,1388.29 1186.93,1993.26 1185.97,2714.45C1185.97,2715.03 1185.5,2715.49 1184.93,2715.49Z" style="fill:none;stroke:black;stroke-width:4.17px;"/>
            </g>
        </g>
    </g>
</svg>
