<?xml version="1.0" encoding="UTF-8" standalone="no"?>
<!DOCTYPE svg PUBLIC "-//W3C//DTD SVG 1.1//EN" "http://www.w3.org/Graphics/SVG/1.1/DTD/svg11.dtd">
<svg width="100%" height="100%" viewBox="0 0 3544 3544" version="1.1" xmlns="http://www.w3.org/2000/svg" xmlns:xlink="http://www.w3.org/1999/xlink" xml:space="preserve" xmlns:serif="http://www.serif.com/" style="fill-rule:evenodd;clip-rule:evenodd;stroke-linejoin:round;stroke-miterlimit:2;">
    <g id="Top">
        <g id="Engraving">
            <g transform="matrix(1,0,0,1,-2193.35,-2234.77)">
                <path d="M4131.61,2997.63L4928.8,3457.88C4928.8,3457.88 4464.69,4261.74 4464.69,4261.74C4464.69,4261.74 3638.2,3784.56 3638.2,3784.56C3634.21,3782.26 3629.11,3783.63 3626.81,3787.61C3624.51,3791.6 3625.88,3796.7 3629.86,3799L4463.57,4280.34C4467.56,4282.64 4472.66,4281.27 4474.96,4277.29L4947.4,3459C4949.7,3455.01 4948.33,3449.91 4944.35,3447.61L4139.95,2983.19C4135.97,2980.89 4130.86,2982.26 4128.57,2986.24C4126.27,2990.23 4127.63,2995.33 4131.61,2997.63Z"/>
            </g>
            <g transform="matrix(1,0,0,1,-2193.35,-2234.77)">
                <path d="M3070.87,5019.75L3188.98,5019.75C3193.58,5019.75 3197.31,5016.02 3197.31,5011.42L3197.31,4044.84C3197.31,4040.24 3193.58,4036.5 3188.98,4036.5C3184.38,4036.5 3180.64,4040.24 3180.64,4044.84L3180.64,5003.08C3180.64,5003.08 3070.87,5003.08 3070.87,5003.08L3070.87,5019.75ZM3070.87,5019.75L3070.87,5003.08L2966.9,5003.08C2962.3,5003.08 2958.56,5006.82 2958.56,5011.42C2958.56,5016.02 2962.3,5019.75 2966.9,5019.75L3070.87,5019.75Z"/>
            </g>
            <g transform="matrix(1,0,0,1,-2193.35,-2234.77)">
                <path d="M4217.33,3370.76L4459.69,4275.28C4460.88,4279.72 4465.45,4282.36 4469.9,4281.17C4474.34,4279.98 4476.98,4275.41 4475.79,4270.97L4233.43,3366.45C4232.23,3362 4227.66,3359.36 4223.22,3360.55C4218.78,3361.74 4216.14,3366.32 4217.33,3370.76Z"/>
            </g>
            <g transform="matrix(0.5,-0.866025,0.866025,0.5,-3187.68,1476.09)">
                <path d="M2288.31,4788.34C2280.87,4784.59 2273.26,4780.97 2265.46,4777.49C2262.31,4776.08 2258.61,4777.5 2257.2,4780.65C2255.8,4783.8 2257.21,4787.5 2260.36,4788.9C2267.98,4792.3 2275.41,4795.84 2282.68,4799.5C2285.75,4801.06 2289.52,4799.82 2291.07,4796.74C2292.62,4793.66 2291.39,4789.9 2288.31,4788.34ZM2332.27,4813.47C2325.26,4808.94 2318.03,4804.55 2310.61,4800.32C2307.62,4798.61 2303.8,4799.65 2302.09,4802.65C2300.38,4805.64 2301.42,4809.46 2304.42,4811.17C2311.64,4815.29 2318.66,4819.56 2325.49,4823.97C2328.39,4825.84 2332.26,4825.01 2334.13,4822.11C2336,4819.22 2335.17,4815.34 2332.27,4813.47ZM2373.16,4843.5C2366.72,4838.12 2360.05,4832.9 2353.17,4827.85C2350.39,4825.81 2346.47,4826.42 2344.43,4829.2C2342.39,4831.98 2342.99,4835.89 2345.77,4837.93C2352.45,4842.83 2358.91,4847.88 2365.15,4853.09C2367.8,4855.31 2371.74,4854.95 2373.95,4852.3C2376.16,4849.65 2375.81,4845.71 2373.16,4843.5ZM2409.91,4878.59C2404.22,4872.35 2398.29,4866.3 2392.12,4860.41C2389.63,4858.03 2385.67,4858.13 2383.28,4860.62C2380.9,4863.12 2381,4867.08 2383.49,4869.46C2389.45,4875.14 2395.18,4880.99 2400.68,4887.01C2403,4889.56 2406.96,4889.74 2409.51,4887.41C2412.05,4885.09 2412.23,4881.13 2409.91,4878.59ZM2486.24,5009.43C2483.52,5001.32 2480.58,4993.39 2477.4,4985.62C2476.09,4982.43 2472.44,4980.89 2469.25,4982.2C2466.05,4983.51 2464.52,4987.16 2465.83,4990.35C2468.9,4997.87 2471.76,5005.55 2474.39,5013.4C2475.49,5016.67 2479.03,5018.44 2482.3,5017.34C2485.57,5016.25 2487.34,5012.7 2486.24,5009.43ZM2441.45,4918.47C2436.67,4911.45 2431.65,4904.62 2426.39,4897.96C2424.24,4895.26 2420.31,4894.8 2417.61,4896.94C2414.9,4899.08 2414.44,4903.01 2416.58,4905.72C2421.66,4912.14 2426.5,4918.73 2431.11,4925.5C2433.05,4928.35 2436.94,4929.09 2439.79,4927.15C2442.65,4925.21 2443.39,4921.32 2441.45,4918.47ZM2466.99,4962.43C2463.23,4954.77 2459.24,4947.3 2455,4940C2453.26,4937.02 2449.44,4936 2446.45,4937.73C2443.47,4939.47 2442.46,4943.3 2444.19,4946.28C2448.28,4953.32 2452.14,4960.54 2455.77,4967.93C2457.29,4971.03 2461.03,4972.31 2464.13,4970.79C2467.23,4969.27 2468.51,4965.53 2466.99,4962.43Z"/>
            </g>
            <g transform="matrix(0.501335,-0.229529,0.221179,0.483097,-860.043,1726.58)">
                <path d="M2596.76,3874.75C2568.03,3873.73 2534.73,3864.36 2531.25,3830.72C2530.21,3820.58 2531.42,3819.25 2532.87,3808.83C2534.28,3798.61 2533.92,3793.02 2538.43,3782.31C2540.56,3777.26 2543.96,3772.84 2547.05,3768.31C2548.84,3765.7 2550.94,3763.3 2553.03,3760.92C2549.94,3758.51 2546.82,3756.08 2544.14,3753.21C2537.07,3745.65 2532.2,3737.09 2528.43,3727.42C2526.04,3721.3 2524.2,3714.96 2522.74,3708.55C2518.77,3691.16 2518.82,3672.04 2526.83,3655.75C2529.74,3649.83 2534.66,3642.7 2541.04,3639.95C2542.49,3639.33 2544.1,3639.03 2545.68,3638.98C2559.7,3638.58 2556.8,3653.08 2556.94,3663.12C2557.38,3693.24 2558.26,3721.47 2570.3,3749.55C2572.1,3748.49 2573.93,3747.42 2575.89,3746.71C2578.39,3745.82 2580.99,3745.16 2583.61,3744.78C2591.84,3743.6 2601.56,3743.6 2609.8,3744.78C2612.42,3745.16 2615.02,3745.82 2617.51,3746.71C2619.48,3747.42 2621.3,3748.49 2623.1,3749.55C2635.15,3721.47 2636.03,3693.24 2636.46,3663.12C2636.61,3653.08 2633.7,3638.58 2647.73,3638.98C2649.31,3639.03 2650.92,3639.33 2652.37,3639.95C2658.74,3642.7 2663.66,3649.83 2666.58,3655.75C2674.59,3672.04 2674.64,3691.16 2670.67,3708.55C2669.21,3714.96 2667.37,3721.3 2664.98,3727.42C2661.21,3737.09 2656.34,3745.65 2649.27,3753.21C2646.59,3756.08 2643.47,3758.51 2640.37,3760.92C2642.47,3763.3 2644.57,3765.7 2646.36,3768.31C2649.45,3772.84 2652.85,3777.26 2654.97,3782.31C2659.49,3793.02 2659.13,3798.61 2660.54,3808.83C2661.98,3819.25 2663.2,3820.58 2662.15,3830.72C2658.68,3864.31 2625.46,3873.73 2596.76,3874.75Z"/>
            </g>
            <g transform="matrix(2.37103,-1.08554,1.08554,2.37103,-9296.63,-4111.87)">
                <path d="M2590.45,4166.43L2590.45,4130.64L2597.67,4130.64L2597.67,4144.72L2611.83,4144.72L2611.83,4130.64L2619.06,4130.64L2619.06,4166.43L2611.83,4166.43L2611.83,4150.78L2597.67,4150.78L2597.67,4166.43L2590.45,4166.43Z" style="fill-rule:nonzero;"/>
                <path d="M2631.61,4148.41L2625.38,4147.29C2626.08,4144.78 2627.29,4142.92 2628.99,4141.72C2630.7,4140.52 2633.24,4139.91 2636.61,4139.91C2639.67,4139.91 2641.95,4140.28 2643.45,4141C2644.95,4141.72 2646,4142.64 2646.61,4143.76C2647.22,4144.87 2647.53,4146.92 2647.53,4149.9L2647.45,4157.91C2647.45,4160.19 2647.56,4161.87 2647.78,4162.95C2648,4164.03 2648.41,4165.19 2649.01,4166.43L2642.23,4166.43C2642.05,4165.97 2641.83,4165.3 2641.57,4164.4C2641.45,4163.99 2641.37,4163.73 2641.33,4163.6C2640.15,4164.73 2638.9,4165.59 2637.57,4166.16C2636.23,4166.73 2634.81,4167.01 2633.29,4167.01C2630.62,4167.01 2628.52,4166.29 2626.98,4164.84C2625.44,4163.39 2624.67,4161.56 2624.67,4159.35C2624.67,4157.88 2625.02,4156.58 2625.72,4155.43C2626.42,4154.28 2627.4,4153.4 2628.67,4152.79C2629.93,4152.18 2631.75,4151.65 2634.12,4151.19C2637.33,4150.59 2639.55,4150.03 2640.79,4149.51L2640.79,4148.82C2640.79,4147.51 2640.46,4146.57 2639.81,4146.01C2639.16,4145.44 2637.93,4145.16 2636.12,4145.16C2634.9,4145.16 2633.95,4145.4 2633.27,4145.88C2632.58,4146.36 2632.03,4147.2 2631.61,4148.41ZM2640.79,4153.98C2639.91,4154.27 2638.52,4154.62 2636.61,4155.03C2634.71,4155.43 2633.46,4155.83 2632.88,4156.22C2631.98,4156.86 2631.53,4157.66 2631.53,4158.64C2631.53,4159.6 2631.89,4160.43 2632.61,4161.13C2633.33,4161.83 2634.24,4162.18 2635.34,4162.18C2636.58,4162.18 2637.76,4161.77 2638.88,4160.96C2639.71,4160.34 2640.26,4159.58 2640.52,4158.69C2640.7,4158.1 2640.79,4156.99 2640.79,4155.34L2640.79,4153.98Z" style="fill-rule:nonzero;"/>
                <path d="M2660.86,4166.43L2653.99,4166.43L2653.99,4140.5L2660.37,4140.5L2660.37,4144.19C2661.46,4142.44 2662.44,4141.3 2663.31,4140.74C2664.18,4140.19 2665.17,4139.91 2666.28,4139.91C2667.84,4139.91 2669.34,4140.35 2670.79,4141.21L2668.67,4147.19C2667.51,4146.44 2666.44,4146.07 2665.45,4146.07C2664.49,4146.07 2663.67,4146.33 2663,4146.86C2662.34,4147.39 2661.81,4148.34 2661.43,4149.73C2661.05,4151.11 2660.86,4154.01 2660.86,4158.42L2660.86,4166.43Z" style="fill-rule:nonzero;"/>
                <path d="M2680.88,4166.43L2670.43,4140.5L2677.63,4140.5L2682.51,4153.73L2683.93,4158.15C2684.3,4157.03 2684.54,4156.29 2684.64,4155.93C2684.86,4155.2 2685.11,4154.46 2685.37,4153.73L2690.3,4140.5L2697.36,4140.5L2687.05,4166.43L2680.88,4166.43Z" style="fill-rule:nonzero;"/>
                <path d="M2716.57,4158.18L2723.41,4159.32C2722.53,4161.83 2721.14,4163.74 2719.24,4165.05C2717.35,4166.36 2714.97,4167.01 2712.12,4167.01C2707.62,4167.01 2704.28,4165.54 2702.12,4162.59C2700.41,4160.23 2699.55,4157.26 2699.55,4153.66C2699.55,4149.36 2700.68,4146 2702.92,4143.56C2705.17,4141.13 2708.01,4139.91 2711.44,4139.91C2715.3,4139.91 2718.34,4141.19 2720.57,4143.73C2722.8,4146.28 2723.87,4150.18 2723.77,4155.44L2706.58,4155.44C2706.63,4157.48 2707.19,4159.06 2708.24,4160.19C2709.3,4161.32 2710.62,4161.89 2712.2,4161.89C2713.27,4161.89 2714.18,4161.59 2714.91,4161.01C2715.64,4160.42 2716.19,4159.48 2716.57,4158.18ZM2716.96,4151.24C2716.91,4149.26 2716.4,4147.75 2715.42,4146.71C2714.45,4145.68 2713.26,4145.16 2711.86,4145.16C2710.36,4145.16 2709.12,4145.71 2708.15,4146.8C2707.17,4147.89 2706.69,4149.37 2706.7,4151.24L2716.96,4151.24Z" style="fill-rule:nonzero;"/>
                <path d="M2726.12,4140.5L2733.41,4140.5L2739.62,4158.91L2745.67,4140.5L2752.78,4140.5L2743.62,4165.45L2741.98,4169.97C2741.38,4171.48 2740.81,4172.64 2740.26,4173.43C2739.72,4174.23 2739.09,4174.88 2738.38,4175.38C2737.68,4175.87 2736.8,4176.26 2735.77,4176.53C2734.74,4176.81 2733.57,4176.95 2732.27,4176.95C2730.95,4176.95 2729.66,4176.81 2728.39,4176.53L2727.78,4171.16C2728.85,4171.38 2729.82,4171.48 2730.68,4171.48C2732.28,4171.48 2733.45,4171.01 2734.22,4170.08C2734.99,4169.14 2735.57,4167.95 2735.98,4166.5L2726.12,4140.5Z" style="fill-rule:nonzero;"/>
                <path d="M2755.7,4137.5L2755.7,4131.12L2779.17,4131.12L2779.17,4136.11C2777.23,4138.01 2775.26,4140.74 2773.26,4144.31C2771.26,4147.87 2769.73,4151.66 2768.68,4155.67C2767.63,4159.69 2767.11,4163.27 2767.13,4166.43L2760.51,4166.43C2760.63,4161.48 2761.65,4156.43 2763.58,4151.29C2765.51,4146.15 2768.08,4141.55 2771.3,4137.5L2755.7,4137.5Z" style="fill-rule:nonzero;"/>
                <path d="M2801.07,4166.43L2794.2,4166.43L2794.2,4140.57C2791.7,4142.92 2788.74,4144.65 2785.34,4145.77L2785.34,4139.55C2787.13,4138.96 2789.08,4137.85 2791.18,4136.22C2793.28,4134.58 2794.72,4132.67 2795.5,4130.49L2801.07,4130.49L2801.07,4166.43Z" style="fill-rule:nonzero;"/>
            </g>
            <g transform="matrix(5.51091e-16,-1,1,5.51091e-16,-2144.35,3202.3)">
                <path d="M2680.72,5354.37L2680.72,5321.56L2693.02,5321.56C2695.53,5321.56 2697.54,5321.89 2699.06,5322.56C2700.57,5323.22 2701.76,5324.24 2702.61,5325.62C2703.47,5327 2703.9,5328.45 2703.9,5329.95C2703.9,5331.36 2703.52,5332.68 2702.76,5333.91C2702,5335.15 2700.85,5336.15 2699.31,5336.91C2701.3,5337.49 2702.82,5338.49 2703.89,5339.89C2704.96,5341.29 2705.49,5342.95 2705.49,5344.86C2705.49,5346.39 2705.16,5347.82 2704.52,5349.14C2703.87,5350.46 2703.07,5351.48 2702.11,5352.2C2701.16,5352.91 2699.96,5353.45 2698.52,5353.82C2697.08,5354.19 2695.32,5354.37 2693.23,5354.37L2680.72,5354.37ZM2685.06,5335.35L2692.15,5335.35C2694.08,5335.35 2695.46,5335.22 2696.29,5334.97C2697.4,5334.64 2698.23,5334.09 2698.79,5333.33C2699.35,5332.57 2699.63,5331.62 2699.63,5330.47C2699.63,5329.38 2699.37,5328.42 2698.84,5327.59C2698.32,5326.76 2697.58,5326.2 2696.61,5325.89C2695.64,5325.59 2693.97,5325.43 2691.62,5325.43L2685.06,5325.43L2685.06,5335.35ZM2685.06,5350.5L2693.23,5350.5C2694.63,5350.5 2695.61,5350.44 2696.18,5350.34C2697.18,5350.16 2698.01,5349.86 2698.69,5349.44C2699.36,5349.03 2699.91,5348.42 2700.34,5347.62C2700.78,5346.82 2700.99,5345.9 2700.99,5344.86C2700.99,5343.63 2700.68,5342.57 2700.05,5341.67C2699.43,5340.77 2698.56,5340.13 2697.44,5339.77C2696.33,5339.4 2694.73,5339.22 2692.64,5339.22L2685.06,5339.22L2685.06,5350.5Z" style="fill-rule:nonzero;"/>
            </g>
            <g transform="matrix(1,0,0,1,-2143.1,-2185.77)">
                <path d="M2703.04,5342.87L2707.38,5343.96C2706.47,5347.53 2704.83,5350.25 2702.47,5352.12C2700.1,5353.99 2697.21,5354.93 2693.8,5354.93C2690.26,5354.93 2687.39,5354.21 2685.17,5352.77C2682.95,5351.33 2681.27,5349.24 2680.11,5346.51C2678.95,5343.78 2678.38,5340.85 2678.38,5337.72C2678.38,5334.3 2679.03,5331.32 2680.34,5328.78C2681.64,5326.23 2683.5,5324.3 2685.91,5322.98C2688.32,5321.66 2690.97,5321 2693.86,5321C2697.15,5321 2699.91,5321.84 2702.14,5323.51C2704.38,5325.18 2705.94,5327.53 2706.82,5330.56L2702.55,5331.56C2701.79,5329.18 2700.68,5327.44 2699.24,5326.35C2697.79,5325.26 2695.97,5324.72 2693.77,5324.72C2691.25,5324.72 2689.14,5325.32 2687.45,5326.53C2685.76,5327.74 2684.57,5329.36 2683.88,5331.4C2683.2,5333.43 2682.85,5335.53 2682.85,5337.7C2682.85,5340.49 2683.26,5342.92 2684.07,5345C2684.89,5347.08 2686.15,5348.64 2687.87,5349.67C2689.58,5350.7 2691.44,5351.21 2693.44,5351.21C2695.87,5351.21 2697.93,5350.51 2699.62,5349.11C2701.3,5347.71 2702.44,5345.63 2703.04,5342.87Z" style="fill-rule:nonzero;"/>
            </g>
            <g transform="matrix(0.545928,-0.945575,0.616561,0.355972,-331.041,3414.21)">
                <path d="M2716.83,1151.34L2743.88,1222.68L2689.79,1222.68L2716.83,1151.34Z"/>
            </g>
        </g>
    </g>
</svg>
