<?xml version="1.0" encoding="UTF-8" standalone="no"?>
<!DOCTYPE svg PUBLIC "-//W3C//DTD SVG 1.1//EN" "http://www.w3.org/Graphics/SVG/1.1/DTD/svg11.dtd">
<svg width="100%" height="100%" viewBox="0 0 3544 3544" version="1.1" xmlns="http://www.w3.org/2000/svg" xmlns:xlink="http://www.w3.org/1999/xlink" xml:space="preserve" xmlns:serif="http://www.serif.com/" style="fill-rule:evenodd;clip-rule:evenodd;stroke-linejoin:round;stroke-miterlimit:2;">
    <g id="Bottom">
        <g id="Cut">
            <g transform="matrix(11.1988,0,0,11.1988,-29898.7,-29940.1)">
                <path d="M2716.63,2958.92L2716.63,2938.02C2716.63,2936.64 2717.17,2935.33 2718.15,2934.35C2719.12,2933.38 2720.43,2932.84 2721.81,2932.84L2727.08,2932.84C2728.46,2932.84 2729.77,2933.38 2730.74,2934.35C2731.72,2935.33 2732.26,2936.64 2732.26,2938.02C2732.26,2940.98 2734.66,2943.38 2737.63,2943.38L2742.9,2943.38C2744.33,2943.38 2745.69,2942.82 2746.7,2941.81C2747.7,2940.8 2748.27,2939.44 2748.27,2938.02L2748.27,2837.82C2748.27,2836.4 2747.7,2835.03 2746.7,2834.03C2745.69,2833.02 2744.33,2832.46 2742.9,2832.46L2737.63,2832.46C2736.21,2832.46 2734.84,2833.02 2733.83,2834.03C2732.83,2835.03 2732.26,2836.4 2732.26,2837.82C2732.26,2840.68 2729.94,2843 2727.08,2843L2721.81,2843C2720.43,2843 2719.12,2842.46 2718.15,2841.49C2717.17,2840.51 2716.63,2839.2 2716.63,2837.82L2716.63,2732.54C2716.63,2732.49 2716.67,2732.45 2716.72,2732.45L2727.08,2732.45C2728.51,2732.45 2729.87,2731.88 2730.88,2730.88C2731.88,2729.87 2732.45,2728.51 2732.45,2727.08L2732.45,2721.81C2732.45,2718.95 2734.77,2716.63 2737.63,2716.63L2890.56,2716.63C2893.42,2716.63 2895.74,2718.95 2895.74,2721.81C2895.74,2724.67 2893.42,2726.99 2890.56,2726.99C2887.59,2726.99 2885.19,2729.39 2885.19,2732.36L2885.19,2737.63C2885.19,2739.05 2885.76,2740.42 2886.76,2741.42C2887.77,2742.43 2889.13,2742.99 2890.56,2742.99L2927.47,2742.99C2928.89,2742.99 2930.26,2742.43 2931.26,2741.42C2932.27,2740.42 2932.84,2739.05 2932.84,2737.63L2932.84,2732.36C2932.84,2730.93 2932.27,2729.57 2931.26,2728.56C2930.26,2727.55 2928.89,2726.99 2927.47,2726.99C2924.61,2726.99 2922.29,2724.67 2922.29,2721.81C2922.29,2718.95 2924.61,2716.63 2927.47,2716.63L2958.92,2716.63C2958.95,2716.63 2958.97,2716.64 2958.99,2716.66C2959.01,2716.67 2959.02,2716.7 2959.02,2716.72C2958.92,2850.4 2850.4,2958.92 2716.72,2959.02C2716.7,2959.02 2716.67,2959.01 2716.66,2958.99C2716.64,2958.97 2716.63,2958.95 2716.63,2958.92Z" style="fill:none;stroke:black;stroke-width:0.37px;"/>
            </g>
            <g transform="matrix(-0.870105,1.50707,-1.50707,-0.870105,6043.24,-1789.54)">
                <circle cx="2716.24" cy="1263.01" r="11.877" style="fill:none;stroke:black;stroke-width:2.39px;stroke-linecap:round;stroke-miterlimit:1.5;"/>
            </g>
        </g>
    </g>
</svg>
