<?xml version="1.0" encoding="UTF-8" standalone="no"?>
<!DOCTYPE svg PUBLIC "-//W3C//DTD SVG 1.1//EN" "http://www.w3.org/Graphics/SVG/1.1/DTD/svg11.dtd">
<svg width="100%" height="100%" viewBox="0 0 3544 3544" version="1.1" xmlns="http://www.w3.org/2000/svg" xmlns:xlink="http://www.w3.org/1999/xlink" xml:space="preserve" xmlns:serif="http://www.serif.com/" style="fill-rule:evenodd;clip-rule:evenodd;stroke-linejoin:round;stroke-miterlimit:2;">
    <g transform="matrix(1,0,0,1,-2193.35,-2234.77)">
        <g id="Top">
            <g id="Cut-2" serif:id="Cut 2">
                <path d="M4248.15,2717.58L4665.35,2717.58C4697.39,2717.58 4723.37,2743.55 4723.37,2775.59C4723.37,2807.63 4697.39,2833.6 4665.35,2833.6C4632.16,2833.6 4605.26,2860.51 4605.26,2893.7L4605.26,2952.76C4605.26,2968.7 4611.59,2983.98 4622.86,2995.25C4634.13,3006.52 4649.42,3012.85 4665.35,3012.85L5078.74,3012.85C5094.68,3012.85 5109.97,3006.52 5121.23,2995.25C5132.51,2983.98 5138.84,2968.7 5138.84,2952.76L5138.84,2893.7C5138.84,2877.76 5132.51,2862.48 5121.23,2851.21C5109.97,2839.94 5094.68,2833.6 5078.74,2833.6C5046.7,2833.6 5020.73,2807.63 5020.73,2775.59C5020.73,2743.55 5046.7,2717.58 5078.74,2717.58L5430.99,2717.58C5431.26,2717.58 5431.53,2717.69 5431.72,2717.88C5431.92,2718.08 5432.03,2718.34 5432.03,2718.62C5430.9,4215.69 4215.69,5430.9 2718.62,5432.03C2718.34,5432.03 2718.08,5431.92 2717.88,5431.72C2717.69,5431.53 2717.58,5431.26 2717.58,5430.99L2717.58,5196.85C2717.58,5181.46 2723.69,5166.71 2734.57,5155.83C2745.45,5144.95 2760.2,5138.84 2775.59,5138.84L2834.65,5138.84C2850.03,5138.84 2864.79,5144.95 2875.67,5155.83C2886.55,5166.71 2892.66,5181.46 2892.66,5196.85C2892.66,5230.04 2919.57,5256.95 2952.76,5256.95L3011.81,5256.95C3027.75,5256.95 3043.04,5250.62 3054.31,5239.35C3065.58,5228.07 3071.91,5212.79 3071.91,5196.85L3071.91,4206.39C3071.91,4205.9 3072.24,4205.48 3072.71,4205.37C3745.31,4044.78 4246.14,3439.81 4247.1,2718.62C4247.1,2718.04 4247.57,2717.58 4248.15,2717.58Z" style="fill:none;stroke:black;stroke-width:4.17px;"/>
            </g>
        </g>
    </g>
</svg>
