<?xml version="1.0" encoding="UTF-8" standalone="no"?>
<!DOCTYPE svg PUBLIC "-//W3C//DTD SVG 1.1//EN" "http://www.w3.org/Graphics/SVG/1.1/DTD/svg11.dtd">
<svg width="100%" height="100%" viewBox="0 0 3544 3544" version="1.1" xmlns="http://www.w3.org/2000/svg" xmlns:xlink="http://www.w3.org/1999/xlink" xml:space="preserve" xmlns:serif="http://www.serif.com/" style="fill-rule:evenodd;clip-rule:evenodd;stroke-linecap:round;stroke-linejoin:round;stroke-miterlimit:1.5;">
    <g id="Bottom">
    </g>
    <g id="Top">
        <g id="Cut-1" serif:id="Cut 1">
            <g transform="matrix(-0.197935,0.342834,-0.342834,-0.197935,2942.66,966.461)">
                <circle cx="3188.98" cy="1898.24" r="208.849" style="fill:none;stroke:black;stroke-width:10.53px;"/>
            </g>
            <g transform="matrix(-0.197935,0.342834,-0.342834,-0.197935,3415.1,148.169)">
                <circle cx="3188.98" cy="1898.24" r="208.849" style="fill:none;stroke:black;stroke-width:10.53px;"/>
            </g>
            <g transform="matrix(-0.395871,1.11022e-16,-1.11022e-16,-0.395871,2258.04,2819.44)">
                <circle cx="3188.98" cy="1898.24" r="208.849" style="fill:none;stroke:black;stroke-width:10.53px;"/>
            </g>
            <g transform="matrix(-0.197935,0.342834,-0.342834,-0.197935,3147.23,1084.57)">
                <circle cx="3188.98" cy="1898.24" r="208.849" style="fill:none;stroke:black;stroke-width:10.53px;"/>
            </g>
            <g transform="matrix(-0.197935,0.342834,-0.342834,-0.197935,3619.68,266.279)">
                <circle cx="3188.98" cy="1898.24" r="208.849" style="fill:none;stroke:black;stroke-width:10.53px;"/>
            </g>
            <g transform="matrix(-0.395871,1.11022e-16,-1.11022e-16,-0.395871,2258.04,3055.66)">
                <circle cx="3188.98" cy="1898.24" r="208.849" style="fill:none;stroke:black;stroke-width:10.53px;"/>
            </g>
            <g transform="matrix(0.102459,0.382382,-0.382382,0.102459,2587.04,301.77)">
                <circle cx="3188.98" cy="1898.24" r="208.849" style="fill:none;stroke:black;stroke-width:10.53px;"/>
            </g>
            <g transform="matrix(0.102459,0.382382,-0.382382,0.102459,2535.07,107.824)">
                <circle cx="3188.98" cy="1898.24" r="208.849" style="fill:none;stroke:black;stroke-width:10.53px;"/>
            </g>
            <g transform="matrix(0.102459,0.382382,-0.382382,0.102459,2483.1,-86.1213)">
                <circle cx="3188.98" cy="1898.24" r="208.849" style="fill:none;stroke:black;stroke-width:10.53px;"/>
            </g>
            <g transform="matrix(0.102459,0.382382,-0.382382,0.102459,2431.14,-280.067)">
                <circle cx="3188.98" cy="1898.24" r="208.849" style="fill:none;stroke:black;stroke-width:10.53px;"/>
            </g>
            <g transform="matrix(-0.197935,0.342834,-0.342834,-0.197935,3204.17,1458.4)">
                <circle cx="3188.98" cy="1898.24" r="208.849" style="fill:none;stroke:black;stroke-width:10.53px;"/>
            </g>
            <g transform="matrix(-0.197935,0.342834,-0.342834,-0.197935,3086.06,1662.97)">
                <circle cx="3188.98" cy="1898.24" r="208.849" style="fill:none;stroke:black;stroke-width:10.53px;"/>
            </g>
            <g transform="matrix(-0.197935,0.342834,-0.342834,-0.197935,3351.81,1202.68)">
                <circle cx="3188.98" cy="1898.24" r="208.849" style="fill:none;stroke:black;stroke-width:10.53px;"/>
            </g>
            <g transform="matrix(-0.197935,0.342834,-0.342834,-0.197935,3824.25,384.389)">
                <circle cx="3188.98" cy="1898.24" r="208.849" style="fill:none;stroke:black;stroke-width:10.53px;"/>
            </g>
            <g transform="matrix(-0.395871,1.11022e-16,-1.11022e-16,-0.395871,2258.04,3291.89)">
                <circle cx="3188.98" cy="1898.24" r="208.849" style="fill:none;stroke:black;stroke-width:10.53px;"/>
            </g>
            <g transform="matrix(-0.197935,0.342834,-0.342834,-0.197935,3408.74,1576.51)">
                <circle cx="3188.98" cy="1898.24" r="208.849" style="fill:none;stroke:black;stroke-width:10.53px;"/>
            </g>
            <g transform="matrix(-0.197935,0.342834,-0.342834,-0.197935,3290.63,1781.08)">
                <circle cx="3188.98" cy="1898.24" r="208.849" style="fill:none;stroke:black;stroke-width:10.53px;"/>
            </g>
            <g transform="matrix(-0.197935,0.342834,-0.342834,-0.197935,3556.38,1320.79)">
                <circle cx="3188.98" cy="1898.24" r="208.849" style="fill:none;stroke:black;stroke-width:10.53px;"/>
            </g>
            <g transform="matrix(-0.197935,0.342834,-0.342834,-0.197935,3674.49,1116.22)">
                <circle cx="3188.98" cy="1898.24" r="208.849" style="fill:none;stroke:black;stroke-width:10.53px;"/>
            </g>
            <g transform="matrix(-0.197935,0.342834,-0.342834,-0.197935,3792.6,911.645)">
                <circle cx="3188.98" cy="1898.24" r="208.849" style="fill:none;stroke:black;stroke-width:10.53px;"/>
            </g>
            <g transform="matrix(-0.197935,0.342834,-0.342834,-0.197935,3910.71,707.072)">
                <circle cx="3188.98" cy="1898.24" r="208.849" style="fill:none;stroke:black;stroke-width:10.53px;"/>
            </g>
            <g transform="matrix(-0.197935,0.342834,-0.342834,-0.197935,4028.82,502.5)">
                <circle cx="3188.98" cy="1898.24" r="208.849" style="fill:none;stroke:black;stroke-width:10.53px;"/>
            </g>
            <g transform="matrix(-0.395871,1.11022e-16,-1.11022e-16,-0.395871,2258.04,3528.11)">
                <circle cx="3188.98" cy="1898.24" r="208.849" style="fill:none;stroke:black;stroke-width:10.53px;"/>
            </g>
        </g>
    </g>
</svg>
