<?xml version="1.0" encoding="UTF-8" standalone="no"?>
<!DOCTYPE svg PUBLIC "-//W3C//DTD SVG 1.1//EN" "http://www.w3.org/Graphics/SVG/1.1/DTD/svg11.dtd">
<svg width="100%" height="100%" viewBox="0 0 3544 3544" version="1.1" xmlns="http://www.w3.org/2000/svg" xmlns:xlink="http://www.w3.org/1999/xlink" xml:space="preserve" xmlns:serif="http://www.serif.com/" style="fill-rule:evenodd;clip-rule:evenodd;stroke-linecap:round;stroke-linejoin:round;stroke-miterlimit:1.5;">
    <g id="Top">
        <g id="Cut-1" serif:id="Cut 1">
            <g transform="matrix(0.395871,0,0,0.395871,989.588,202.7)">
                <circle cx="3188.98" cy="1898.24" r="208.849" style="fill:none;stroke:black;stroke-width:10.53px;"/>
            </g>
            <g transform="matrix(0.197935,0.342834,-0.342834,0.197935,2744.02,303.432)">
                <circle cx="3188.98" cy="1898.24" r="208.849" style="fill:none;stroke:black;stroke-width:10.53px;"/>
            </g>
            <g transform="matrix(-0.197935,0.342834,-0.342834,-0.197935,3534,1873.18)">
                <circle cx="3188.98" cy="1898.24" r="208.849" style="fill:none;stroke:black;stroke-width:10.53px;"/>
            </g>
            <g transform="matrix(-0.395871,1.11022e-16,-1.11022e-16,-0.395871,2569.55,3342.2)">
                <circle cx="3188.98" cy="1898.24" r="208.849" style="fill:none;stroke:black;stroke-width:10.53px;"/>
            </g>
            <g transform="matrix(-0.197935,-0.342834,0.342834,-0.197935,815.116,3241.47)">
                <circle cx="3188.98" cy="1898.24" r="208.849" style="fill:none;stroke:black;stroke-width:10.53px;"/>
            </g>
            <g transform="matrix(0.197935,-0.342834,0.342834,0.197935,25.1347,1671.72)">
                <circle cx="3188.98" cy="1898.24" r="208.849" style="fill:none;stroke:black;stroke-width:10.53px;"/>
            </g>
            <g transform="matrix(0.395871,0,0,0.395871,989.588,-33.7324)">
                <circle cx="3188.98" cy="1898.24" r="208.849" style="fill:none;stroke:black;stroke-width:10.53px;"/>
            </g>
            <g transform="matrix(0.197935,0.342834,-0.342834,0.197935,2948.78,185.215)">
                <circle cx="3188.98" cy="1898.24" r="208.849" style="fill:none;stroke:black;stroke-width:10.53px;"/>
            </g>
            <g transform="matrix(-0.197935,0.342834,-0.342834,-0.197935,3738.76,1991.4)">
                <circle cx="3188.98" cy="1898.24" r="208.849" style="fill:none;stroke:black;stroke-width:10.53px;"/>
            </g>
            <g transform="matrix(-0.395871,1.11022e-16,-1.11022e-16,-0.395871,2569.55,3578.63)">
                <circle cx="3188.98" cy="1898.24" r="208.849" style="fill:none;stroke:black;stroke-width:10.53px;"/>
            </g>
            <g transform="matrix(-0.197935,-0.342834,0.342834,-0.197935,610.359,3359.69)">
                <circle cx="3188.98" cy="1898.24" r="208.849" style="fill:none;stroke:black;stroke-width:10.53px;"/>
            </g>
            <g transform="matrix(0.197935,-0.342834,0.342834,0.197935,-179.622,1553.5)">
                <circle cx="3188.98" cy="1898.24" r="208.849" style="fill:none;stroke:black;stroke-width:10.53px;"/>
            </g>
            <g transform="matrix(0.395871,0,0,0.395871,44.7062,-33.7324)">
                <circle cx="3188.98" cy="1898.24" r="208.849" style="fill:none;stroke:black;stroke-width:10.53px;"/>
            </g>
            <g transform="matrix(0.197935,0.342834,-0.342834,0.197935,2476.34,-633.076)">
                <circle cx="3188.98" cy="1898.24" r="208.849" style="fill:none;stroke:black;stroke-width:10.53px;"/>
            </g>
            <g transform="matrix(-0.197935,0.342834,-0.342834,-0.197935,4211.2,1173.11)">
                <circle cx="3188.98" cy="1898.24" r="208.849" style="fill:none;stroke:black;stroke-width:10.53px;"/>
            </g>
            <g transform="matrix(-0.395871,1.11022e-16,-1.11022e-16,-0.395871,3514.43,3578.63)">
                <circle cx="3188.98" cy="1898.24" r="208.849" style="fill:none;stroke:black;stroke-width:10.53px;"/>
            </g>
            <g transform="matrix(-0.197935,-0.342834,0.342834,-0.197935,1082.8,4177.98)">
                <circle cx="3188.98" cy="1898.24" r="208.849" style="fill:none;stroke:black;stroke-width:10.53px;"/>
            </g>
            <g transform="matrix(0.197935,-0.342834,0.342834,0.197935,-652.063,2371.79)">
                <circle cx="3188.98" cy="1898.24" r="208.849" style="fill:none;stroke:black;stroke-width:10.53px;"/>
            </g>
            <g transform="matrix(0.395871,0,0,0.395871,989.588,-270.165)">
                <circle cx="3188.98" cy="1898.24" r="208.849" style="fill:none;stroke:black;stroke-width:10.53px;"/>
            </g>
            <g transform="matrix(0.197935,0.342834,-0.342834,0.197935,3153.54,66.9992)">
                <circle cx="3188.98" cy="1898.24" r="208.849" style="fill:none;stroke:black;stroke-width:10.53px;"/>
            </g>
            <g transform="matrix(-0.197935,0.342834,-0.342834,-0.197935,3943.52,2109.62)">
                <circle cx="3188.98" cy="1898.24" r="208.849" style="fill:none;stroke:black;stroke-width:10.53px;"/>
            </g>
            <g transform="matrix(-0.395871,1.11022e-16,-1.11022e-16,-0.395871,2569.55,3815.07)">
                <circle cx="3188.98" cy="1898.24" r="208.849" style="fill:none;stroke:black;stroke-width:10.53px;"/>
            </g>
            <g transform="matrix(-0.197935,-0.342834,0.342834,-0.197935,405.602,3477.9)">
                <circle cx="3188.98" cy="1898.24" r="208.849" style="fill:none;stroke:black;stroke-width:10.53px;"/>
            </g>
            <g transform="matrix(0.197935,-0.342834,0.342834,0.197935,-384.379,1435.29)">
                <circle cx="3188.98" cy="1898.24" r="208.849" style="fill:none;stroke:black;stroke-width:10.53px;"/>
            </g>
            <g transform="matrix(0.395871,0,0,0.395871,44.7062,-270.165)">
                <circle cx="3188.98" cy="1898.24" r="208.849" style="fill:none;stroke:black;stroke-width:10.53px;"/>
            </g>
            <g transform="matrix(0.197935,0.342834,-0.342834,0.197935,2681.1,-751.293)">
                <circle cx="3188.98" cy="1898.24" r="208.849" style="fill:none;stroke:black;stroke-width:10.53px;"/>
            </g>
            <g transform="matrix(-0.197935,0.342834,-0.342834,-0.197935,4415.96,1291.32)">
                <circle cx="3188.98" cy="1898.24" r="208.849" style="fill:none;stroke:black;stroke-width:10.53px;"/>
            </g>
            <g transform="matrix(-0.395871,1.11022e-16,-1.11022e-16,-0.395871,3514.43,3815.07)">
                <circle cx="3188.98" cy="1898.24" r="208.849" style="fill:none;stroke:black;stroke-width:10.53px;"/>
            </g>
            <g transform="matrix(-0.197935,-0.342834,0.342834,-0.197935,878.043,4296.19)">
                <circle cx="3188.98" cy="1898.24" r="208.849" style="fill:none;stroke:black;stroke-width:10.53px;"/>
            </g>
            <g transform="matrix(0.197935,-0.342834,0.342834,0.197935,-856.82,2253.58)">
                <circle cx="3188.98" cy="1898.24" r="208.849" style="fill:none;stroke:black;stroke-width:10.53px;"/>
            </g>
            <g transform="matrix(0.104505,0,0,0.104505,1495.68,1488.56)">
                <circle cx="2716.53" cy="2716.53" r="344.707" style="fill:none;stroke:black;stroke-width:39.87px;"/>
            </g>
            <g transform="matrix(1.54133,0,0,1.54133,-2407.35,-1621.91)">
                <circle cx="2716.24" cy="1263.01" r="11.877" style="fill:none;stroke:black;stroke-width:2.7px;"/>
            </g>
            <g transform="matrix(0.770665,1.33483,-1.33483,0.770665,2625.02,-3551.1)">
                <circle cx="2716.24" cy="1263.01" r="11.877" style="fill:none;stroke:black;stroke-width:2.7px;"/>
            </g>
            <g transform="matrix(-0.770665,1.33483,-1.33483,-0.770665,6811.94,-157.541)">
                <circle cx="2716.24" cy="1263.01" r="11.877" style="fill:none;stroke:black;stroke-width:2.7px;"/>
            </g>
            <g transform="matrix(-1.54133,4.44089e-16,-6.66134e-16,-1.54133,5966.48,5165.21)">
                <circle cx="2716.24" cy="1263.01" r="11.877" style="fill:none;stroke:black;stroke-width:2.7px;"/>
            </g>
            <g transform="matrix(-0.770665,-1.33483,1.33483,-0.770665,934.116,7094.41)">
                <circle cx="2716.24" cy="1263.01" r="11.877" style="fill:none;stroke:black;stroke-width:2.7px;"/>
            </g>
            <g transform="matrix(0.770665,-1.33483,1.33483,0.770665,-3252.8,3700.85)">
                <circle cx="2716.24" cy="1263.01" r="11.877" style="fill:none;stroke:black;stroke-width:2.7px;"/>
            </g>
        </g>
    </g>
</svg>
