<?xml version="1.0" encoding="UTF-8" standalone="no"?>
<!DOCTYPE svg PUBLIC "-//W3C//DTD SVG 1.1//EN" "http://www.w3.org/Graphics/SVG/1.1/DTD/svg11.dtd">
<svg width="100%" height="100%" viewBox="0 0 3544 3544" version="1.1" xmlns="http://www.w3.org/2000/svg" xmlns:xlink="http://www.w3.org/1999/xlink" xml:space="preserve" xmlns:serif="http://www.serif.com/" style="fill-rule:evenodd;clip-rule:evenodd;stroke-linejoin:round;stroke-miterlimit:2;">
    <g id="Top">
        <g id="Engraving">
            <g transform="matrix(1,0,0,1,-936.966,-944.084)">
                <path d="M1634.37,1555.84L2239.93,1905.46C2242.51,1906.95 2245.68,1906.95 2248.26,1905.46C2250.84,1903.97 2252.43,1901.22 2252.43,1898.24L2252.43,1181.83C2252.43,1177.23 2248.69,1173.49 2244.09,1173.49C2239.49,1173.49 2235.76,1177.23 2235.76,1181.83L2235.76,1883.81C2235.76,1883.81 1642.7,1541.41 1642.7,1541.41C1638.72,1539.11 1633.62,1540.47 1631.32,1544.46C1629.02,1548.44 1630.38,1553.54 1634.37,1555.84Z"/>
            </g>
            <g transform="matrix(1,0,0,1,-936.966,-944.084)">
                <path d="M3180.64,1180.91L3180.64,1898.24C3180.64,1901.22 3182.23,1903.97 3184.81,1905.46C3187.39,1906.95 3190.57,1906.95 3193.14,1905.46L3819.77,1543.68C3823.75,1541.38 3825.12,1536.28 3822.82,1532.29C3820.52,1528.31 3815.42,1526.94 3811.44,1529.24L3197.31,1883.81C3197.31,1782.4 3197.31,1180.91 3197.31,1180.91C3197.31,1176.31 3193.58,1172.58 3188.98,1172.58C3184.38,1172.58 3180.64,1176.31 3180.64,1180.91Z"/>
            </g>
            <g transform="matrix(1,0,0,1,-936.966,-944.084)">
                <path d="M4282,2348.62L3657.25,2709.32C3654.67,2710.81 3653.08,2713.56 3653.08,2716.53C3653.08,2719.51 3654.67,2722.26 3657.25,2723.75L4279.62,3083.08C4283.6,3085.38 4288.7,3084.01 4291,3080.03C4293.3,3076.04 4291.94,3070.94 4287.95,3068.64L3678.08,2716.53C3766.2,2665.66 4290.33,2363.05 4290.33,2363.05C4294.32,2360.75 4295.68,2355.65 4293.38,2351.67C4291.08,2347.69 4285.98,2346.32 4282,2348.62Z"/>
            </g>
            <g transform="matrix(1,0,0,1,-936.966,-944.084)">
                <path d="M3788.38,3871.27L3193.14,3527.61C3190.57,3526.12 3187.39,3526.12 3184.81,3527.61C3182.23,3529.1 3180.64,3531.85 3180.64,3534.83L3180.64,4255.47C3180.64,4260.06 3184.38,4263.8 3188.98,4263.8C3193.58,4263.8 3197.31,4260.06 3197.31,4255.47L3197.31,3549.26C3197.31,3549.26 3780.04,3885.7 3780.04,3885.7C3784.03,3888 3789.12,3886.63 3791.43,3882.65C3793.72,3878.67 3792.36,3873.57 3788.38,3871.27Z"/>
            </g>
            <g transform="matrix(1,0,0,1,-936.966,-944.084)">
                <path d="M2252.43,4254.29L2252.43,3534.83C2252.43,3531.85 2250.84,3529.1 2248.26,3527.61C2245.68,3526.12 2242.51,3526.12 2239.93,3527.61L1628.97,3880.35C1624.99,3882.65 1623.62,3887.75 1625.92,3891.73C1628.22,3895.72 1633.32,3897.08 1637.3,3894.78C1637.3,3894.78 2148.78,3599.48 2235.76,3549.26C2235.76,3549.26 2235.76,4254.29 2235.76,4254.29C2235.76,4258.89 2239.49,4262.62 2244.09,4262.62C2248.69,4262.62 2252.43,4258.89 2252.43,4254.29Z"/>
            </g>
            <g transform="matrix(1,0,0,1,-936.966,-944.084)">
                <path d="M1179.46,3068.06L1775.82,2723.75C1778.4,2722.26 1779.99,2719.51 1779.99,2716.53C1779.99,2713.56 1778.4,2710.81 1775.82,2709.32L1169.47,2359.24C1165.49,2356.94 1160.38,2358.31 1158.09,2362.29C1155.79,2366.28 1157.15,2371.38 1161.14,2373.68C1161.14,2373.68 1668.39,2666.54 1754.99,2716.53C1754.99,2716.53 1171.13,3053.62 1171.13,3053.62C1167.15,3055.93 1165.78,3061.03 1168.08,3065.01C1170.38,3068.99 1175.48,3070.36 1179.46,3068.06Z"/>
            </g>
            <g transform="matrix(0.470873,-0.168163,0.336327,0.941745,-146.451,-513.137)">
                <path d="M2068.9,1440.77L2068.9,1409.98L2331.32,1409.98L2331.32,1381.39L2419.29,1425.38L2331.32,1469.36L2331.32,1440.77L2068.9,1440.77Z"/>
            </g>
            <g transform="matrix(0.38107,0.323706,-0.647412,0.76214,2795.94,-1038.33)">
                <path d="M2068.9,1440.77L2068.9,1409.98L2331.32,1409.98L2331.32,1381.39L2419.29,1425.38L2331.32,1469.36L2331.32,1440.77L2068.9,1440.77Z"/>
            </g>
            <g transform="matrix(-0.0898027,0.491869,-0.983739,-0.179605,4721.96,1247.26)">
                <path d="M2068.9,1440.77L2068.9,1409.98L2331.32,1409.98L2331.32,1381.39L2419.29,1425.38L2331.32,1469.36L2331.32,1440.77L2068.9,1440.77Z"/>
            </g>
            <g transform="matrix(-0.470873,0.168163,-0.336327,-0.941745,3705.59,4058.04)">
                <path d="M2068.9,1440.77L2068.9,1409.98L2331.32,1409.98L2331.32,1381.39L2419.29,1425.38L2331.32,1469.36L2331.32,1440.77L2068.9,1440.77Z"/>
            </g>
            <g transform="matrix(-0.38107,-0.323706,0.647412,-0.76214,763.202,4583.23)">
                <path d="M2068.9,1440.77L2068.9,1409.98L2331.32,1409.98L2331.32,1381.39L2419.29,1425.38L2331.32,1469.36L2331.32,1440.77L2068.9,1440.77Z"/>
            </g>
            <g transform="matrix(0.0898027,-0.491869,0.983739,0.179605,-1162.82,2297.64)">
                <path d="M2068.9,1440.77L2068.9,1409.98L2331.32,1409.98L2331.32,1381.39L2419.29,1425.38L2331.32,1469.36L2331.32,1440.77L2068.9,1440.77Z"/>
            </g>
            <g transform="matrix(0.385932,-0.317894,0.635789,0.771863,-807.462,275.543)">
                <path d="M2068.9,1440.77L2068.9,1409.98L2331.32,1409.98L2331.32,1381.39L2419.29,1425.38L2331.32,1469.36L2331.32,1440.77L2068.9,1440.77Z"/>
            </g>
            <g transform="matrix(0.46827,0.175279,-0.350559,0.936541,1782.41,-1216.44)">
                <path d="M2068.9,1440.77L2068.9,1409.98L2331.32,1409.98L2331.32,1381.39L2419.29,1425.38L2331.32,1469.36L2331.32,1440.77L2068.9,1440.77Z"/>
            </g>
            <g transform="matrix(0.0823389,0.493174,-0.986347,0.164678,4369.45,280.47)">
                <path d="M2068.9,1440.77L2068.9,1409.98L2331.32,1409.98L2331.32,1381.39L2419.29,1425.38L2331.32,1469.36L2331.32,1440.77L2068.9,1440.77Z"/>
            </g>
            <g transform="matrix(-0.385932,0.317894,-0.635789,-0.771863,4366.6,3269.36)">
                <path d="M2068.9,1440.77L2068.9,1409.98L2331.32,1409.98L2331.32,1381.39L2419.29,1425.38L2331.32,1469.36L2331.32,1440.77L2068.9,1440.77Z"/>
            </g>
            <g transform="matrix(-0.46827,-0.175279,0.350559,-0.936541,1776.72,4761.34)">
                <path d="M2068.9,1440.77L2068.9,1409.98L2331.32,1409.98L2331.32,1381.39L2419.29,1425.38L2331.32,1469.36L2331.32,1440.77L2068.9,1440.77Z"/>
            </g>
            <g transform="matrix(-0.0823389,-0.493174,0.986347,-0.164678,-810.307,3264.43)">
                <path d="M2068.9,1440.77L2068.9,1409.98L2331.32,1409.98L2331.32,1381.39L2419.29,1425.38L2331.32,1469.36L2331.32,1440.77L2068.9,1440.77Z"/>
            </g>
            <g transform="matrix(-0.452645,0.212397,-0.424794,-0.90529,2849.1,1332.25)">
                <path d="M2068.9,1440.77L2068.9,1409.98L2331.32,1409.98L2331.32,1381.39L2419.29,1425.38L2331.32,1469.36L2331.32,1440.77L2068.9,1440.77Z"/>
            </g>
            <g transform="matrix(-0.410264,-0.285804,0.571607,-0.820527,2695.56,2478.59)">
                <path d="M2068.9,1440.77L2068.9,1409.98L2331.32,1409.98L2331.32,1381.39L2419.29,1425.38L2331.32,1469.36L2331.32,1440.77L2068.9,1440.77Z"/>
            </g>
            <g transform="matrix(0.0423813,-0.498201,0.996401,0.0847627,1626.03,2918.79)">
                <path d="M2068.9,1440.77L2068.9,1409.98L2331.32,1409.98L2331.32,1381.39L2419.29,1425.38L2331.32,1469.36L2331.32,1440.77L2068.9,1440.77Z"/>
            </g>
            <g transform="matrix(0.452645,-0.212397,0.424794,0.90529,710.043,2212.65)">
                <path d="M2068.9,1440.77L2068.9,1409.98L2331.32,1409.98L2331.32,1381.39L2419.29,1425.38L2331.32,1469.36L2331.32,1440.77L2068.9,1440.77Z"/>
            </g>
            <g transform="matrix(0.410264,0.285804,-0.571607,0.820527,863.579,1066.32)">
                <path d="M2068.9,1440.77L2068.9,1409.98L2331.32,1409.98L2331.32,1381.39L2419.29,1425.38L2331.32,1469.36L2331.32,1440.77L2068.9,1440.77Z"/>
            </g>
            <g transform="matrix(-0.0423813,0.498201,-0.996401,-0.0847627,1933.11,626.112)">
                <path d="M2068.9,1440.77L2068.9,1409.98L2331.32,1409.98L2331.32,1381.39L2419.29,1425.38L2331.32,1469.36L2331.32,1440.77L2068.9,1440.77Z"/>
            </g>
            <g transform="matrix(-0.353782,0.353324,-0.706649,-0.707564,2636.41,995.604)">
                <path d="M2068.9,1440.77L2068.9,1409.98L2331.32,1409.98L2331.32,1381.39L2419.29,1425.38L2331.32,1469.36L2331.32,1440.77L2068.9,1440.77Z"/>
            </g>
            <g transform="matrix(-0.482879,-0.129722,0.259444,-0.965758,2880.76,2126.07)">
                <path d="M2068.9,1440.77L2068.9,1409.98L2331.32,1409.98L2331.32,1381.39L2419.29,1425.38L2331.32,1469.36L2331.32,1440.77L2068.9,1440.77Z"/>
            </g>
            <g transform="matrix(-0.129097,-0.483047,0.966093,-0.258194,2023.92,2902.92)">
                <path d="M2068.9,1440.77L2068.9,1409.98L2331.32,1409.98L2331.32,1381.39L2419.29,1425.38L2331.32,1469.36L2331.32,1440.77L2068.9,1440.77Z"/>
            </g>
            <g transform="matrix(0.353782,-0.353324,0.706649,0.707564,922.729,2549.3)">
                <path d="M2068.9,1440.77L2068.9,1409.98L2331.32,1409.98L2331.32,1381.39L2419.29,1425.38L2331.32,1469.36L2331.32,1440.77L2068.9,1440.77Z"/>
            </g>
            <g transform="matrix(0.482879,0.129722,-0.259444,0.965758,678.38,1418.83)">
                <path d="M2068.9,1440.77L2068.9,1409.98L2331.32,1409.98L2331.32,1381.39L2419.29,1425.38L2331.32,1469.36L2331.32,1440.77L2068.9,1440.77Z"/>
            </g>
            <g transform="matrix(0.129097,0.483047,-0.966093,0.258194,1535.22,641.982)">
                <path d="M2068.9,1440.77L2068.9,1409.98L2331.32,1409.98L2331.32,1381.39L2419.29,1425.38L2331.32,1469.36L2331.32,1440.77L2068.9,1440.77Z"/>
            </g>
            <g transform="matrix(2.22839,0,0,2.22839,885.313,882.988)">
                <path d="M269.3,148.5C269.3,148.5 267.8,149.5 265,151.6C262.2,153.6 258.1,156.7 253,160.6C247.9,164.6 241.7,169.4 234.8,175.2C227.9,180.9 220.2,187.6 212,195C203.8,202.5 195.2,210.7 186.5,219.8C177.8,228.9 168.9,238.8 160.3,249.4C156.1,254.8 151.8,260.2 147.8,265.9C145.7,268.7 143.8,271.7 141.8,274.6C140.8,276.1 139.9,277.6 138.9,279C138,280.5 137,282 136.1,283.5C135.2,285 134.3,286.5 133.4,288.1C132.5,289.6 131.7,291.2 130.8,292.7C129,295.8 127.5,299 125.8,302.1C125,303.7 124.3,305.3 123.5,306.9L122.4,309.3C122,310.1 121.7,310.9 121.4,311.7L119.3,316.6L117.4,321.5C115.1,328.1 112.9,334.8 111.7,341.6C110.9,345 110.5,348.4 110,351.7C109.8,353.4 109.7,355.1 109.5,356.7C109.4,357.5 109.3,358.4 109.3,359.2L109.2,361.7C109.2,363.4 109,365 109.1,366.7C109.2,368.3 109.2,370 109.3,371.6L109.3,372.8L109.6,376.4C109.8,378 109.8,379.6 110.1,381.2C110.3,382.8 110.6,384.4 110.8,385.9C111.1,387.5 111.4,389 111.7,390.6C112.2,393.7 113.2,396.7 114,399.7C117.4,411.7 122.6,422.8 128.6,432.9C129.4,434.2 130.1,435.4 130.9,436.7L135.7,443.9C136.6,445 137.4,446.2 138.3,447.3C140,449.6 141.6,451.8 143.4,453.9C144.3,455 145.1,456 146,457.1C146.9,458.1 147.7,459.2 148.6,460.2C150.4,462.2 152.1,464.1 153.8,466C154.2,466.5 154.6,467 155.1,467.4C155.5,467.9 156,468.3 156.4,468.8C157.3,469.7 158.1,470.6 159,471.5C159.9,472.4 160.7,473.3 161.5,474.1C161.9,474.5 162.3,475 162.7,475.4C163.1,475.8 163.6,476.2 164,476.6C165.7,478.2 167.3,479.8 168.9,481.3C169.7,482.1 170.5,482.8 171.2,483.6L173.6,485.7C175.1,487.1 176.6,488.5 178.1,489.8C180.9,492.5 183.7,494.7 186.1,496.9C188.6,499 190.7,501 192.6,502.6C194.5,504.2 196.2,505.6 197.5,506.7C200.2,509 201.6,510.2 201.6,510.2L200.4,512.2C200.4,512.2 198.6,511.5 195.4,510.2C193.8,509.5 191.8,508.7 189.4,507.7C187,506.7 184.4,505.4 181.4,504C178.4,502.5 175.1,501 171.6,498.9C169.9,497.9 168,496.9 166.2,495.8C165.3,495.3 164.3,494.7 163.3,494.1C162.4,493.5 161.4,492.9 160.4,492.3C156.5,489.8 152.3,487.1 148.1,483.9C147,483.1 146,482.3 144.9,481.5C144.4,481.1 143.8,480.7 143.3,480.3C142.8,479.9 142.2,479.4 141.7,479C139.5,477.2 137.4,475.4 135.1,473.5C132.9,471.6 130.7,469.5 128.5,467.4C126.2,465.4 124.1,463.1 121.9,460.7C120.8,459.5 119.7,458.4 118.6,457.2C117.6,455.9 116.5,454.7 115.5,453.4C114.4,452.1 113.4,450.8 112.3,449.5C111.3,448.2 110.3,446.7 109.3,445.4C101.3,434.3 94.3,421.1 90.1,406.3C89.2,402.6 88.1,398.8 87.6,395C87.4,394 87.3,393.1 87.1,392.1C87,391.1 86.8,390.2 86.7,389.2C86.5,387.2 86.4,385.3 86.2,383.3C85.7,375.4 85.9,367.5 86.9,359.6L87.2,356.6C87.3,355.6 87.5,354.6 87.7,353.7C88,351.8 88.4,349.8 88.7,347.8C89.6,344 90.4,340.1 91.6,336.3C92.6,332.5 93.9,328.8 95.2,325.1C95.8,323.2 96.6,321.4 97.3,319.6C98,317.8 98.7,315.9 99.5,314.2L101.9,308.8L104.5,303.6C104.9,302.7 105.3,301.9 105.8,301L107.2,298.5C108.1,296.8 109,295.1 110,293.4C112,290.1 113.8,286.8 115.9,283.6C116.9,282 117.9,280.4 119,278.8C120.1,277.2 121.1,275.7 122.2,274.1C130.7,261.7 140.2,250.4 149.7,239.9C159.3,229.5 169,219.9 178.6,211.3C188.2,202.7 197.6,194.9 206.4,188C215.2,181.1 223.5,175 230.9,169.8C238.3,164.6 244.9,160.2 250.4,156.7C255.9,153.2 260.3,150.5 263.3,148.7C266.3,146.9 267.9,146 267.9,146L269.3,148.5Z" style="fill-rule:nonzero;"/>
            </g>
            <g transform="matrix(2.22839,0,0,2.22839,885.313,882.988)">
                <path d="M244.7,210.2C244.7,210.2 244,211.3 242.9,213.4C241.7,215.5 240,218.6 237.9,222.5C235.8,226.5 233.3,231.2 230.7,236.8C228,242.3 225.2,248.6 222.3,255.5C219.4,262.4 216.5,269.9 213.9,277.9C211.3,285.9 208.9,294.4 207,303.3C205.1,312.2 203.6,321.3 203,330.7C202.4,340 202.4,349.5 203.4,358.8L203.8,362.3L204,364.1L204.3,365.8C204.7,368.1 205.1,370.4 205.4,372.7C205.9,375 206.4,377.3 206.9,379.5C207.1,380.6 207.4,381.8 207.8,382.9L209.6,389.5C210,390.6 210.4,391.7 210.7,392.8C211.1,393.9 211.4,395 211.8,396.1L212.3,397.7L212.4,398.1L212.9,399.6C213.7,401.9 214.6,404.2 215.4,406.5C215.8,407.6 216.2,408.9 216.6,410.1L217.8,413.7C220.8,423.2 223.1,432.5 224.7,441.5C225,443.8 225.4,446 225.7,448.2C225.9,450.4 226.2,452.6 226.4,454.8C226.5,457 226.7,459.1 226.8,461.2C226.8,462.3 226.8,463.3 226.9,464.4L226.9,467.5C226.7,475.7 225.5,483.3 223.2,489.7C222.1,492.9 220.7,495.8 219.1,498.4C217.5,500.9 215.8,503 214.1,504.8C210.6,508.2 207.1,509.9 204.8,510.7C203.6,511.1 202.7,511.3 202,511.4C201.4,511.5 201,511.5 201,511.5C201,511.5 202.2,511 204.1,509.5C205,508.8 206.1,507.8 207.2,506.5C208.3,505.2 209.4,503.7 210.4,501.9C211.4,500.1 212.2,498 212.9,495.6C213.5,493.2 214.1,490.6 214.3,487.8C214.4,487.1 214.4,486.4 214.4,485.6C214.4,484.9 214.5,484.1 214.5,483.4C214.5,481.9 214.5,480.3 214.4,478.7C214.3,477.9 214.3,477.1 214.2,476.3C214.1,475.5 214,474.6 213.9,473.8C213.8,472.1 213.4,470.4 213.1,468.6C212.8,466.8 212.4,465 212.1,463.2C211.7,461.4 211.2,459.5 210.8,457.6C210.3,455.7 209.8,453.8 209.2,451.8C208.6,449.9 208,447.9 207.4,445.9C204.8,437.9 201.6,429.6 198.1,421.1C197.7,420.1 197.2,419 196.8,417.9C196.3,416.8 195.9,415.8 195.4,414.7C194.4,412.5 193.4,410.2 192.4,408L191.9,407L191.9,406.9C192,407.1 191.9,406.9 191.9,406.9L191.7,406.4L190.9,404.6C190.4,403.4 189.9,402.1 189.4,400.9C188.9,399.7 188.4,398.4 187.9,397.2C187.5,395.9 187.1,394.6 186.6,393.4C186.2,392.1 185.8,390.8 185.3,389.5C184.9,388.2 184.5,386.9 184.2,385.6C183.5,383 182.9,380.3 182.2,377.6L180.7,369.5L180.4,367.5L180.2,365.5L179.8,361.4C178.7,350.5 178.9,339.4 180.1,328.8C181.3,318.1 183.7,307.9 186.7,298.2C189.7,288.6 193.4,279.6 197.5,271.4C198.5,269.4 199.5,267.4 200.6,265.4C201.7,263.5 202.7,261.6 203.8,259.7C206,256 208.1,252.5 210.3,249.2C214.7,242.6 219,236.9 223.1,232C227.2,227.1 231,223.1 234.2,219.8C237.4,216.6 240.1,214.2 241.9,212.6C243.6,211 244.7,210.2 244.7,210.2Z" style="fill-rule:nonzero;"/>
            </g>
            <g transform="matrix(2.22839,0,0,2.22839,885.313,882.988)">
                <path d="M221.5,441.6L222.4,442.2C223,442.6 223.8,443.1 224.9,443.9C226,444.6 227.2,445.5 228.7,446.6C230.1,447.7 231.8,448.9 233.5,450.3C235.2,451.7 237,453.2 238.9,454.9C240.8,456.6 242.7,458.5 244.6,460.5C246.5,462.5 248.4,464.8 250.1,467.1C251.9,469.5 253.5,472 255,474.7L256.1,476.7L256.2,476.8L256.3,477.1L256.4,477.3L257,478.8C257.3,479.4 257.6,480.3 257.8,481L258.2,482.2L258.5,483.3C259.3,486.2 259.8,489.1 260.1,491.8C260.5,494.5 260.8,497.1 261.1,499.5C261.3,500.7 261.4,501.9 261.6,503C261.7,503.6 261.8,504.1 261.9,504.6C262,505.1 262.1,505.6 262.3,506.2C262.8,508.2 263.4,510 264,511.6C264.7,513.1 265.4,514.5 266.1,515.5C266.7,516.6 267.4,517.3 267.9,517.8C268.3,518.3 268.6,518.6 268.6,518.6C268.6,518.6 268.3,518.4 267.7,518.1C267.1,517.7 266.2,517.2 265.2,516.3C264.2,515.5 263.1,514.3 261.9,512.8C261.4,512 260.8,511.2 260.3,510.3C259.8,509.4 259.3,508.4 258.8,507.4C257.9,505.3 257.1,503 256.4,500.5C255.7,498 255.1,495.4 254.5,492.8C253.9,490.2 253.3,487.5 252.5,485L252.2,484L251.9,483.1C251.7,482.5 251.5,482 251.2,481.3L250.7,480.3L250.5,479.8L250.4,479.6L250.4,479.5C250.4,479.5 250.3,479.4 250.4,479.6L250.3,479.5L249.3,477.7C248,475.3 246.5,472.9 244.9,470.6C244.1,469.5 243.3,468.4 242.5,467.2C241.7,466.1 240.9,465 240,464C238.4,461.9 236.7,459.9 235.1,458C233.5,456.1 232,454.3 230.5,452.7C229.1,451 227.8,449.5 226.6,448.2C225.4,446.9 224.4,445.7 223.6,444.7C222.8,443.7 222.2,442.9 221.7,442.4C221.7,441.9 221.5,441.6 221.5,441.6Z" style="fill-rule:nonzero;"/>
            </g>
            <g transform="matrix(2.22839,0,0,2.22839,885.313,882.988)">
                <path d="M291.7,464.7C291.7,464.7 291.3,468.9 290.5,476.3C290.1,480 289.7,484.5 289.2,489.6C288.7,494.7 288.2,500.5 287.8,506.8C287.4,513.1 287,519.9 286.7,527C286.4,534.2 286.3,541.7 286.4,549.5C286.5,553.4 286.6,557.3 286.8,561.3C287.1,565.2 287.4,569.2 287.8,573.2C288,575.2 288.3,577.2 288.6,579.1C288.7,580.1 288.9,581.1 289.1,582.1C289.3,583.1 289.4,584.1 289.6,585C290.3,588.9 291.3,592.8 292.5,596.5C293.6,600.3 295.1,603.8 296.7,607.2C297.1,608 297.5,608.9 298,609.7L299.4,612.1L300.9,614.3C301.4,615.1 302,615.7 302.6,616.4C304.9,619.1 307.4,621.4 310.3,623.3C313.2,625.1 316.3,626.4 319.5,627.4C320.3,627.6 321.2,627.8 322,628C322.8,628.2 323.7,628.3 324.5,628.4L325.8,628.6C326.2,628.7 326.7,628.7 327.1,628.7C328,628.8 328.8,628.9 329.7,628.9C330.6,629 331.4,628.9 332.3,628.9C333.2,628.9 334,629 334.9,628.9C335.8,628.8 336.6,628.8 337.5,628.7C338.4,628.6 339.2,628.6 340,628.5C346.8,627.8 353.3,626.3 359.2,624.5C359.9,624.3 360.7,624.1 361.4,623.9C362.1,623.7 362.8,623.4 363.5,623.2C364.9,622.7 366.3,622.3 367.6,621.9C370.3,620.9 372.8,620 375.2,619.1C377.6,618.2 379.8,617.3 381.9,616.5C384,615.6 385.8,614.8 387.5,614.1C390.9,612.7 393.6,611.5 395.4,610.7C397.2,609.9 398.2,609.5 398.2,609.5C398.2,609.5 397.4,610.2 395.8,611.4C395,612 394,612.8 392.9,613.6C392.3,614 391.7,614.5 391,615C390.3,615.5 389.6,616 388.8,616.5C387.3,617.6 385.5,618.7 383.7,620C381.8,621.2 379.7,622.5 377.5,623.9C375.2,625.2 372.8,626.6 370.2,628C368.9,628.7 367.5,629.3 366.1,630C365.4,630.3 364.7,630.7 364,631C363.3,631.3 362.5,631.6 361.8,632C355.8,634.7 349.1,637.1 341.5,638.7C340.6,638.9 339.6,639.1 338.6,639.2C337.6,639.3 336.6,639.5 335.6,639.7C334.6,639.9 333.6,639.9 332.6,640C331.6,640.1 330.5,640.2 329.5,640.2C327.4,640.2 325.3,640.3 323.1,640L319.8,639.7L316.5,639.1C312.1,638.1 307.6,636.5 303.5,634.1C302.5,633.5 301.5,632.8 300.5,632.1C300,631.8 299.5,631.4 299,631L297.6,629.9C296.6,629.2 295.8,628.3 294.9,627.5L293.6,626.2C293.2,625.8 292.8,625.3 292.4,624.9C291.6,624 290.8,623.1 290.1,622.2L288,619.3L286.1,616.3C285.5,615.3 285,614.2 284.4,613.2C282.3,609 280.5,604.8 279.2,600.4C276.5,591.7 275.1,582.9 274.4,574.3C274,570 273.9,565.7 273.8,561.5C273.8,557.3 273.8,553.2 274,549.1C274.7,532.9 277.1,518 279.7,505.5C281,499.2 282.4,493.5 283.7,488.5C285,483.5 286.4,479.1 287.5,475.6C288.6,472 289.6,469.3 290.3,467.4C291.3,465.6 291.7,464.7 291.7,464.7Z" style="fill-rule:nonzero;"/>
            </g>
            <g transform="matrix(2.22839,0,0,2.22839,885.313,882.988)">
                <circle cx="332.8" cy="589.4" r="3.6"/>
            </g>
            <g transform="matrix(2.22839,0,0,2.22839,885.313,882.988)">
                <circle cx="343" cy="572.1" r="2.6"/>
            </g>
            <g transform="matrix(2.22839,0,0,2.22839,885.313,882.988)">
                <circle cx="325" cy="572.1" r="2.4"/>
            </g>
            <g transform="matrix(2.22839,0,0,2.22839,885.313,882.988)">
                <circle cx="304" cy="568.5" r="2.2"/>
            </g>
            <g transform="matrix(2.22839,0,0,2.22839,885.313,882.988)">
                <circle cx="314.1" cy="585.8" r="2.3"/>
            </g>
            <g transform="matrix(2.22839,0,0,2.22839,885.313,882.988)">
                <circle cx="321.4" cy="604.5" r="2.8"/>
            </g>
            <g transform="matrix(2.22839,0,0,2.22839,885.313,882.988)">
                <circle cx="339.4" cy="604.5" r="2.1"/>
            </g>
            <g transform="matrix(2.22839,0,0,2.22839,885.313,882.988)">
                <circle cx="349.3" cy="593" r="3"/>
            </g>
            <g transform="matrix(2.22839,0,0,2.22839,885.313,882.988)">
                <path d="M333.8,372.1L332.5,388.3L331.3,372.1L333.8,372.1Z" style="fill-rule:nonzero;"/>
            </g>
            <g transform="matrix(2.22839,0,0,2.22839,885.313,882.988)">
                <path d="M398.9,645.1C397.4,644.9 396,644.7 394.5,644.6C391.6,644.4 388.8,643.6 386,643.1C383.3,642.2 380.6,641.7 378.2,640.7C377,640.3 375.8,639.8 374.6,639.4C373.5,638.9 372.4,638.5 371.3,638C369.2,637.1 367.3,636.1 365.6,635.4C364,634.5 362.4,633.8 361.2,633.1C360,632.4 359,631.9 358.4,631.5C357.8,631.1 357.4,630.9 357.4,630.9C357.4,630.9 357.6,631.2 358.1,631.8C358.6,632.4 359.3,633.3 360.3,634.2C361.3,635.2 362.5,636.4 364,637.7C365.5,638.9 367.2,640.4 369.3,641.7C370.3,642.4 371.4,643.1 372.5,643.8C373.7,644.4 374.9,645.1 376.1,645.7C378.5,647.1 381.3,648.1 384.2,649.2C385.7,649.6 387.2,650.1 388.7,650.5C389.5,650.7 390.2,651 391,651.1L393.4,651.5C395,651.7 396.6,652 398.3,652.2L401.6,652.3L401.6,644.9L398.9,645.1Z" style="fill-rule:nonzero;"/>
            </g>
            <g transform="matrix(2.22839,0,0,2.22839,885.313,882.988)">
                <path d="M532,146.5C532,146.5 533.6,147.4 536.7,149.2C539.7,151 544.1,153.6 549.6,157.1C555.1,160.6 561.8,164.9 569.2,170.1C576.7,175.3 585,181.3 593.9,188.2C602.8,195.1 612.2,202.8 621.9,211.4C631.6,220 641.4,229.5 651.1,239.8C660.8,250.2 670.3,261.4 679,273.8C681.1,276.9 683.3,280 685.4,283.2C686.4,284.8 687.5,286.4 688.5,288C689.5,289.6 690.5,291.3 691.5,292.9C695.3,299.6 699,306.4 702.1,313.6L703.3,316.3C703.7,317.2 704,318.1 704.4,319L706.6,324.5L708.5,330.1C709.2,331.9 709.7,333.8 710.3,335.7L711.2,338.5C711.5,339.4 711.8,340.4 712,341.4C712.5,343.3 712.9,345.3 713.4,347.2C713.9,349.1 714.2,351.1 714.5,353.1L715,356C715.2,357 715.3,358 715.4,359C715.6,361 715.9,362.9 716.1,364.9C716.2,366.9 716.3,368.9 716.5,370.9C716.7,372.9 716.7,374.9 716.6,376.9L716.6,379.9C716.6,380.9 716.6,381.9 716.5,382.9C716.3,384.9 716.2,386.8 716,388.8L715.9,390.3C715.8,390.8 715.8,391.3 715.7,391.8C715.5,392.8 715.4,393.7 715.2,394.7C715,395.7 714.9,396.6 714.7,397.6L714.5,399L714.2,400.4C713.7,402.3 713.3,404.2 712.8,406C712.4,407.9 711.7,409.7 711.1,411.5C710.5,413.3 710,415.1 709.3,416.9C708.6,418.6 707.9,420.4 707.2,422.1C706.8,423 706.5,423.8 706.1,424.7C705.7,425.5 705.3,426.3 704.9,427.2C703.3,430.5 701.6,433.7 699.7,436.7C698.8,438.2 697.8,439.7 696.9,441.2C695.9,442.7 694.9,444.1 693.9,445.5L690.9,449.7C689.8,451 688.8,452.3 687.7,453.6C686.6,454.9 685.6,456.2 684.6,457.4L681.3,461C679.1,463.3 677,465.7 674.8,467.7C672.6,469.8 670.4,471.9 668.2,473.8C666,475.7 663.8,477.5 661.6,479.3C661.1,479.7 660.5,480.2 660,480.6C659.4,481 658.9,481.4 658.4,481.8C657.3,482.6 656.2,483.4 655.2,484.2C651,487.4 646.8,490.1 642.9,492.6C641.9,493.2 641,493.8 640,494.5C639,495.1 638.1,495.6 637.1,496.2C635.2,497.3 633.4,498.3 631.6,499.3C628.1,501.3 624.8,502.9 621.8,504.4C618.8,505.9 616.2,507.2 613.8,508.2C611.4,509.2 609.4,510.1 607.8,510.7C604.5,512.1 602.8,512.7 602.8,512.7L601.6,510.7C601.6,510.7 603,509.4 605.7,507.2C607,506 608.7,504.7 610.6,503.1C612.6,501.5 614.7,499.5 617.2,497.4C619.6,495.2 622.4,493 625.2,490.3C626.6,489 628.1,487.6 629.7,486.2L632.1,484.1C632.9,483.3 633.7,482.6 634.4,481.8C636,480.2 637.6,478.7 639.3,477C639.7,476.6 640.1,476.2 640.6,475.8C641,475.4 641.4,474.9 641.8,474.5C642.6,473.6 643.5,472.8 644.3,471.9C645.2,471 646,470.1 646.9,469.2C647.3,468.7 647.8,468.3 648.2,467.8C648.6,467.3 649,466.8 649.5,466.4C651.2,464.5 653,462.5 654.7,460.5C658.1,456.4 661.7,452.2 664.9,447.6C665.7,446.5 666.6,445.3 667.4,444.2L672.2,437C672.9,435.7 673.7,434.5 674.4,433.2C675.1,431.9 675.9,430.7 676.7,429.4C677.4,428.1 678,426.7 678.7,425.4C679,424.7 679.4,424.1 679.7,423.4L680.7,421.4C681.3,420 681.9,418.6 682.6,417.3C682.9,416.6 683.2,415.9 683.5,415.2C683.8,414.5 684,413.8 684.3,413.1C684.9,411.7 685.4,410.2 686,408.8C686.5,407.4 686.9,405.9 687.4,404.4C687.9,402.9 688.4,401.5 688.7,399.9L689.9,395.4L690.2,394.3L690.4,393.1L690.9,390.8C691.6,387.7 692,384.5 692.4,381.3C692.5,380.5 692.6,379.7 692.6,378.9L693,374.1C693.1,373.3 693.1,372.5 693.1,371.6C693.1,370 693.2,368.3 693.2,366.7C693.1,365 693.1,363.4 693,361.7C693,360.9 693,360 692.9,359.2L692.6,356.7C692.4,355 692.3,353.3 692.1,351.6C691.8,349.9 691.6,348.2 691.3,346.5C691.2,345.7 691,344.8 690.8,344L690.3,341.5C689.7,338.1 688.6,334.8 687.7,331.4L686.1,326.4C685.8,325.6 685.6,324.7 685.3,323.9L684.4,321.4C682,314.8 678.9,308.3 675.7,302C674.9,300.4 674,298.8 673.2,297.3C672.4,295.7 671.5,294.2 670.6,292.6C668.9,289.5 667,286.5 665.1,283.4C657.5,271.4 649.2,260 640.5,249.4C631.8,238.8 622.8,229 614,219.9C605.2,210.9 596.5,202.6 588.3,195.2C580.1,187.8 572.3,181.2 565.4,175.4C558.4,169.7 552.2,164.8 547.1,160.9C541.9,157 537.8,154 535,151.9C532.2,149.9 530.6,148.8 530.6,148.8L532,146.5Z" style="fill-rule:nonzero;"/>
            </g>
            <g transform="matrix(2.22839,0,0,2.22839,885.313,882.988)">
                <path d="M558.5,210.2C558.5,210.2 559.5,211 561.4,212.6C563.3,214.2 565.9,216.6 569.1,219.8C572.3,223 576.1,227.1 580.2,232C584.3,236.9 588.6,242.6 593,249.2C595.2,252.5 597.3,256 599.5,259.7C600.6,261.6 601.6,263.5 602.7,265.4C603.7,267.4 604.7,269.4 605.8,271.4C609.8,279.6 613.5,288.6 616.6,298.2C619.6,307.8 622,318.1 623.2,328.8C624.4,339.5 624.6,350.5 623.5,361.4L623.1,365.5L622.9,367.5L622.6,369.5C622.1,372.2 621.7,374.9 621.1,377.6C620.5,380.3 619.8,382.9 619.1,385.6C618.8,386.9 618.4,388.2 618,389.5C617.6,390.8 617.2,392.1 616.7,393.4C616.3,394.7 615.8,396 615.4,397.2C614.9,398.4 614.4,399.7 613.9,400.9C613.4,402.1 612.9,403.4 612.4,404.6L611.6,406.4L611.4,406.9C611.4,406.9 611.3,407.1 611.4,406.9L611.4,407L610.9,408C609.9,410.2 608.9,412.5 607.9,414.7C607.4,415.8 607,416.9 606.5,417.9C606.1,419 605.6,420 605.2,421.1C601.7,429.6 598.4,437.9 595.9,445.9C595.3,447.9 594.6,449.9 594.1,451.8C593.6,453.8 593,455.7 592.5,457.6C592.1,459.5 591.6,461.4 591.2,463.2C590.9,465 590.5,466.8 590.2,468.6C589.9,470.4 589.6,472.1 589.4,473.8C589.3,474.6 589.2,475.5 589.1,476.3C589,477.1 589,477.9 588.9,478.7C588.7,480.3 588.8,481.9 588.8,483.4C588.8,484.2 588.9,484.9 588.9,485.6C589,486.3 588.9,487.1 589,487.8C589.2,490.7 589.8,493.2 590.4,495.6C591.1,498 592,500.1 592.9,501.9C593.9,503.7 595,505.2 596.1,506.5C597.2,507.8 598.2,508.7 599.2,509.5C601,511 602.3,511.5 602.3,511.5C602.3,511.5 602,511.5 601.3,511.4C600.7,511.3 599.7,511.1 598.5,510.7C596.1,509.9 592.7,508.2 589.2,504.8C587.5,503.1 585.8,501 584.2,498.4C582.7,495.9 581.3,493 580.1,489.7C577.8,483.3 576.7,475.7 576.4,467.5C576.3,466.5 576.4,465.4 576.4,464.4C576.4,463.4 576.4,462.3 576.5,461.2C576.6,459.1 576.7,457 576.9,454.8C577.1,452.6 577.4,450.4 577.6,448.2C577.9,446 578.3,443.8 578.6,441.5C580.2,432.4 582.5,423.2 585.5,413.7L587.9,406.5C588.7,404.2 589.5,401.9 590.4,399.6L590.9,398.1L591,397.7L591.5,396.1C591.9,395 592.2,393.9 592.6,392.8C593,391.7 593.4,390.6 593.7,389.5L595.5,382.9C595.8,381.8 596.2,380.7 596.4,379.5C596.9,377.2 597.4,374.9 597.9,372.7C598.3,370.4 598.6,368.1 599,365.8L599.3,364.1L599.5,362.3L599.9,358.8C600.8,349.5 600.9,340 600.3,330.7C599.7,321.4 598.2,312.2 596.3,303.3C594.4,294.4 592,285.9 589.4,277.9C586.8,269.9 583.9,262.4 581,255.5C578.1,248.6 575.2,242.3 572.6,236.8C569.9,231.3 567.4,226.5 565.4,222.5C563.3,218.6 561.6,215.5 560.4,213.4C559.2,211.3 558.5,210.2 558.5,210.2Z" style="fill-rule:nonzero;"/>
            </g>
            <g transform="matrix(2.22839,0,0,2.22839,885.313,882.988)">
                <path d="M581.7,441.6C581.7,441.6 581.5,441.9 581,442.4C580.6,442.9 579.9,443.7 579.1,444.7C578.3,445.7 577.3,446.9 576.1,448.2C574.9,449.5 573.6,451.1 572.2,452.7C570.8,454.3 569.3,456.1 567.6,458C566,459.9 564.4,461.9 562.7,464C561.9,465 561.1,466.1 560.2,467.2C559.4,468.3 558.6,469.4 557.8,470.6C556.2,472.9 554.8,475.2 553.4,477.7L552.4,479.5L552.3,479.6C552.4,479.4 552.3,479.5 552.3,479.5L552.3,479.6L552.2,479.8L552,480.3L551.5,481.3C551.2,482 551,482.5 550.8,483.1L550.5,484L550.2,485C549.4,487.5 548.8,490.2 548.2,492.8C547.6,495.4 547,498 546.3,500.5C545.6,503 544.9,505.3 543.9,507.4C543.5,508.5 542.9,509.4 542.4,510.3C541.9,511.2 541.3,512 540.8,512.8C539.7,514.3 538.6,515.5 537.5,516.3C536.6,517.2 535.6,517.7 535,518.1C534.4,518.5 534.1,518.6 534.1,518.6C534.1,518.6 534.3,518.3 534.8,517.8C535.2,517.3 535.9,516.6 536.6,515.5C537.3,514.5 538,513.1 538.7,511.6C539.3,510 540,508.2 540.4,506.2C540.5,505.7 540.6,505.2 540.8,504.6C540.9,504.1 541,503.5 541.1,503C541.3,501.9 541.5,500.7 541.6,499.5C541.9,497 542.3,494.4 542.6,491.8C543,489.1 543.4,486.2 544.2,483.3L544.5,482.2L544.9,481C545.2,480.2 545.4,479.4 545.7,478.8L546.3,477.3L546.4,477.1L546.5,476.8L546.6,476.7L547.7,474.7C549.2,472.1 550.8,469.5 552.6,467.1C554.4,464.7 556.2,462.5 558.1,460.5C560,458.4 561.9,456.6 563.8,454.9C565.7,453.2 567.5,451.6 569.2,450.3C570.9,448.9 572.5,447.7 574,446.6C575.4,445.5 576.7,444.6 577.8,443.9C578.8,443.2 579.7,442.6 580.3,442.2C581.4,441.8 581.7,441.6 581.7,441.6Z" style="fill-rule:nonzero;"/>
            </g>
            <g transform="matrix(2.22839,0,0,2.22839,885.313,882.988)">
                <path d="M511.5,464.7C511.5,464.7 511.9,465.7 512.6,467.6C513.3,469.5 514.3,472.2 515.4,475.8C516.5,479.4 517.9,483.7 519.2,488.7C520.5,493.7 521.9,499.4 523.2,505.7C525.8,518.3 528.1,533.1 528.9,549.3C529.1,553.3 529.2,557.5 529.1,561.7C529,565.9 528.9,570.2 528.5,574.5C527.8,583.1 526.3,591.9 523.7,600.6C522.4,604.9 520.6,609.2 518.5,613.4C517.9,614.4 517.4,615.5 516.8,616.5L514.9,619.5L512.8,622.4C512.1,623.4 511.3,624.2 510.5,625.1C510.1,625.5 509.7,626 509.3,626.4L508,627.7C507.1,628.5 506.3,629.4 505.3,630.1L503.9,631.2C503.4,631.6 503,631.9 502.4,632.3C501.4,633 500.4,633.6 499.4,634.3C495.3,636.7 490.8,638.3 486.4,639.3L483.1,639.9C482,640.1 480.9,640.1 479.8,640.2C477.6,640.5 475.5,640.4 473.4,640.4C472.4,640.4 471.3,640.3 470.3,640.2C469.3,640.1 468.3,640.1 467.3,639.9C466.3,639.7 465.3,639.6 464.3,639.4C463.3,639.3 462.4,639.1 461.4,638.9C453.8,637.3 447.1,634.9 441.1,632.2C440.4,631.9 439.6,631.5 438.9,631.2C438.2,630.8 437.5,630.5 436.8,630.2C435.4,629.5 434.1,628.8 432.7,628.2C430.1,626.8 427.7,625.4 425.4,624.1C423.2,622.7 421.1,621.5 419.2,620.2C417.3,618.9 415.6,617.8 414.1,616.7C413.3,616.2 412.6,615.7 411.9,615.2C411.2,614.7 410.6,614.2 410,613.8C408.8,612.9 407.9,612.2 407.1,611.6C405.5,610.4 404.7,609.7 404.7,609.7C404.7,609.7 405.7,610.1 407.5,610.9C409.3,611.7 412,612.9 415.4,614.3C417.1,615 419,615.8 421,616.7C423.1,617.5 425.3,618.4 427.7,619.3C430.1,620.2 432.6,621.1 435.3,622.1C436.6,622.5 438,623 439.4,623.4C440.1,623.6 440.8,623.9 441.5,624.1C442.2,624.3 443,624.5 443.7,624.7C449.6,626.5 456.1,627.9 462.9,628.7C463.7,628.8 464.6,628.9 465.4,628.9C466.3,629 467.1,629 468,629.1C468.9,629.2 469.7,629.1 470.6,629.1L473.2,629.1C474.1,629 474.9,628.9 475.8,628.9C476.2,628.9 476.7,628.9 477.1,628.8L478.4,628.6C479.2,628.4 480.1,628.4 480.9,628.2C481.7,628 482.5,627.8 483.4,627.6C486.6,626.6 489.8,625.3 492.6,623.5C495.4,621.6 498,619.3 500.3,616.6C500.8,615.9 501.5,615.3 502,614.5L503.5,612.3L504.9,609.9C505.4,609.1 505.8,608.3 506.2,607.4C507.9,604 509.3,600.5 510.4,596.7C511.6,593 512.6,589.1 513.3,585.2C513.5,584.2 513.7,583.2 513.8,582.3C514,581.3 514.2,580.3 514.3,579.3C514.6,577.3 514.9,575.3 515.1,573.4C515.6,569.4 515.9,565.4 516.1,561.5C516.3,557.5 516.5,553.6 516.5,549.7C516.6,542 516.5,534.4 516.2,527.2C515.9,520 515.5,513.2 515.1,507C514.7,500.7 514.2,494.9 513.7,489.8C513.2,484.7 512.8,480.2 512.4,476.5C511.9,468.9 511.5,464.7 511.5,464.7Z" style="fill-rule:nonzero;"/>
            </g>
            <g transform="matrix(2.22839,0,0,2.22839,885.313,882.988)">
                <circle cx="470.4" cy="589.4" r="3.6"/>
            </g>
            <g transform="matrix(2.22839,0,0,2.22839,885.313,882.988)">
                <circle cx="460.2" cy="572.1" r="2.6"/>
            </g>
            <g transform="matrix(2.22839,0,0,2.22839,885.313,882.988)">
                <circle cx="478.2" cy="572.1" r="2.4"/>
            </g>
            <g transform="matrix(2.22839,0,0,2.22839,885.313,882.988)">
                <circle cx="499.2" cy="568.5" r="2.2"/>
            </g>
            <g transform="matrix(2.22839,0,0,2.22839,885.313,882.988)">
                <circle cx="489.1" cy="585.8" r="2.3"/>
            </g>
            <g transform="matrix(2.22839,0,0,2.22839,885.313,882.988)">
                <circle cx="481.8" cy="604.5" r="2.8"/>
            </g>
            <g transform="matrix(2.22839,0,0,2.22839,885.313,882.988)">
                <circle cx="463.8" cy="604.5" r="2.1"/>
            </g>
            <g transform="matrix(2.22839,0,0,2.22839,885.313,882.988)">
                <circle cx="453.9" cy="593" r="3"/>
            </g>
            <g transform="matrix(1.11777,0,0,1.11777,-1256.95,-1261.11)">
                <path d="M2970.37,2598.81C2970.37,2598.81 2970.17,2598.61 2969.77,2598.41C2969.37,2598.21 2968.57,2597.62 2967.78,2597.22C2966.98,2596.82 2965.98,2596.22 2964.78,2595.62C2964.19,2595.22 2963.59,2595.02 2962.99,2594.62C2962.39,2594.23 2961.6,2594.03 2961,2593.63C2958.21,2592.23 2954.82,2590.64 2951.23,2589.24C2947.64,2587.85 2943.65,2586.65 2939.47,2585.45C2931.29,2583.26 2922.32,2582.46 2913.95,2583.26C2905.38,2583.86 2897.2,2586.45 2889.83,2590.24C2882.45,2594.23 2875.87,2599.61 2870.69,2606.39C2865.3,2613.17 2861.32,2620.94 2858.53,2629.11C2857.93,2631.31 2857.13,2633.1 2856.73,2635.1C2856.13,2637.09 2855.74,2638.88 2855.34,2640.88C2854.54,2644.66 2853.94,2648.25 2853.54,2651.44C2853.34,2653.04 2853.14,2654.43 2853.14,2655.83C2853.14,2657.22 2852.94,2658.22 2852.94,2659.22L2852.94,2662.21C2852.94,2662.21 2853.14,2662.41 2853.54,2662.61C2853.94,2662.81 2854.74,2663.4 2855.54,2663.8C2856.33,2664.2 2857.33,2664.8 2858.53,2665.4C2859.72,2666.2 2860.92,2666.79 2862.51,2667.39C2865.3,2668.79 2868.69,2670.38 2872.28,2671.78C2874.08,2672.58 2875.87,2672.97 2878.06,2673.77L2884.04,2675.57C2892.22,2677.76 2901.19,2678.56 2909.56,2677.76C2918.14,2676.96 2926.31,2674.57 2933.68,2670.58C2941.06,2666.59 2947.64,2661.01 2952.82,2654.23C2958.21,2647.46 2962.19,2639.68 2964.99,2631.51C2966.38,2627.52 2967.58,2623.53 2968.37,2619.74C2969.17,2615.96 2969.77,2612.37 2970.17,2609.18C2970.17,2608.38 2970.37,2607.58 2970.37,2606.99C2970.37,2606.19 2970.57,2605.59 2970.57,2604.79C2970.57,2603.4 2970.77,2602.4 2970.77,2601.4L2970.77,2599.21C2970.37,2599.01 2970.37,2598.81 2970.37,2598.81ZM2889.43,2612.37C2894.05,2612.37 2897.8,2616.12 2897.8,2620.74C2897.8,2625.36 2894.05,2629.11 2889.43,2629.11C2884.81,2629.11 2881.05,2625.36 2881.05,2620.74C2881.05,2616.12 2884.81,2612.37 2889.43,2612.37Z" style="fill-rule:nonzero;"/>
            </g>
            <g transform="matrix(-1.11777,0,0,1.11777,4817.79,-1261.11)">
                <path d="M2970.37,2598.81C2970.37,2598.81 2970.17,2598.61 2969.77,2598.41C2969.37,2598.21 2968.57,2597.62 2967.78,2597.22C2966.98,2596.82 2965.98,2596.22 2964.78,2595.62C2964.19,2595.22 2963.59,2595.02 2962.99,2594.62C2962.39,2594.23 2961.6,2594.03 2961,2593.63C2958.21,2592.23 2954.82,2590.64 2951.23,2589.24C2947.64,2587.85 2943.65,2586.65 2939.47,2585.45C2931.29,2583.26 2922.32,2582.46 2913.95,2583.26C2905.38,2583.86 2897.2,2586.45 2889.83,2590.24C2882.45,2594.23 2875.87,2599.61 2870.69,2606.39C2865.3,2613.17 2861.32,2620.94 2858.53,2629.11C2857.93,2631.31 2857.13,2633.1 2856.73,2635.1C2856.13,2637.09 2855.74,2638.88 2855.34,2640.88C2854.54,2644.66 2853.94,2648.25 2853.54,2651.44C2853.34,2653.04 2853.14,2654.43 2853.14,2655.83C2853.14,2657.22 2852.94,2658.22 2852.94,2659.22L2852.94,2662.21C2852.94,2662.21 2853.14,2662.41 2853.54,2662.61C2853.94,2662.81 2854.74,2663.4 2855.54,2663.8C2856.33,2664.2 2857.33,2664.8 2858.53,2665.4C2859.72,2666.2 2860.92,2666.79 2862.51,2667.39C2865.3,2668.79 2868.69,2670.38 2872.28,2671.78C2874.08,2672.58 2875.87,2672.97 2878.06,2673.77L2884.04,2675.57C2892.22,2677.76 2901.19,2678.56 2909.56,2677.76C2918.14,2676.96 2926.31,2674.57 2933.68,2670.58C2941.06,2666.59 2947.64,2661.01 2952.82,2654.23C2958.21,2647.46 2962.19,2639.68 2964.99,2631.51C2966.38,2627.52 2967.58,2623.53 2968.37,2619.74C2969.17,2615.96 2969.77,2612.37 2970.17,2609.18C2970.17,2608.38 2970.37,2607.58 2970.37,2606.99C2970.37,2606.19 2970.57,2605.59 2970.57,2604.79C2970.57,2603.4 2970.77,2602.4 2970.77,2601.4L2970.77,2599.21C2970.37,2599.01 2970.37,2598.81 2970.37,2598.81ZM2889.43,2612.37C2894.05,2612.37 2897.8,2616.12 2897.8,2620.74C2897.8,2625.36 2894.05,2629.11 2889.43,2629.11C2884.81,2629.11 2881.05,2625.36 2881.05,2620.74C2881.05,2616.12 2884.81,2612.37 2889.43,2612.37Z" style="fill-rule:nonzero;"/>
            </g>
            <g transform="matrix(2.22839,0,0,2.22839,885.313,882.988)">
                <path d="M471.9,372.1L470.7,388.3L469.4,372.1L471.9,372.1Z" style="fill-rule:nonzero;"/>
            </g>
            <g transform="matrix(1.11777,0,0,1.11777,-1256.95,-1261.11)">
                <path d="M2828.62,3023.65C2828.62,2965.43 2778.78,2952.28 2717.18,2952.28C2655.58,2952.28 2605.74,2965.43 2605.74,3023.65C2605.74,3058.94 2655.58,3112.36 2717.18,3112.36C2778.78,3112.56 2828.62,3059.14 2828.62,3023.65ZM2786.51,3063.86C2767.49,3076.19 2747.24,3078.78 2741.32,3069.63C2735.39,3060.49 2746.02,3043.06 2765.05,3030.73C2784.07,3018.41 2804.32,3015.82 2810.24,3024.96C2816.17,3034.1 2805.54,3051.53 2786.51,3063.86ZM2669.32,3030.67C2688.34,3042.99 2698.98,3060.43 2693.05,3069.57C2687.13,3078.71 2666.87,3076.12 2647.85,3063.79C2628.83,3051.47 2618.2,3034.03 2624.12,3024.89C2630.05,3015.75 2650.3,3018.34 2669.32,3030.67Z" style="fill-rule:nonzero;"/>
            </g>
            <g transform="matrix(2.22839,0,0,2.22839,885.313,882.988)">
                <path d="M404.3,645.1C405.8,644.9 407.2,644.7 408.7,644.6C411.6,644.4 414.4,643.6 417.2,643.1C419.9,642.2 422.6,641.7 425,640.7C426.2,640.3 427.4,639.8 428.6,639.4C429.7,638.9 430.8,638.5 431.9,638C434,637.1 435.9,636.1 437.6,635.4C439.2,634.5 440.8,633.8 442,633.1C443.2,632.4 444.2,631.9 444.8,631.5C445.4,631.1 445.8,630.9 445.8,630.9C445.8,630.9 445.6,631.2 445.1,631.8C444.6,632.4 443.9,633.3 442.9,634.2C441.9,635.2 440.7,636.4 439.2,637.7C437.7,638.9 436,640.4 433.9,641.7C432.9,642.4 431.8,643.1 430.7,643.8C429.5,644.4 428.3,645.1 427.1,645.7C424.7,647.1 421.9,648.1 419,649.2C417.5,649.6 416,650.1 414.5,650.5C413.7,650.7 413,651 412.2,651.1L409.8,651.5C408.2,651.7 406.6,652 404.9,652.2L401.6,652.3L401.6,644.9L404.3,645.1Z" style="fill-rule:nonzero;"/>
            </g>
            <g transform="matrix(2.22839,0,0,2.22839,885.313,882.988)">
                <path d="M256.6,336C256.6,336 257.4,334.9 259.1,333.2C259.9,332.3 261,331.3 262.3,330.2C262.9,329.6 263.6,329.1 264.4,328.5C265.1,327.9 265.9,327.3 266.8,326.7C268.5,325.5 270.4,324.3 272.5,323.1C274.6,322 276.9,320.8 279.4,319.9C280.6,319.4 281.9,319 283.2,318.6C284.5,318.3 285.8,317.8 287.2,317.6C289.9,317 292.8,316.7 295.6,316.6C297,316.6 298.5,316.6 299.9,316.7C301.3,316.8 302.7,316.9 304.1,317.2C304.8,317.3 305.5,317.4 306.2,317.6C306.9,317.8 307.5,318 308.2,318.1C308.9,318.3 309.5,318.4 310.2,318.6C310.8,318.8 311.5,319.1 312.1,319.3C313.4,319.7 314.6,320.3 315.7,320.8C316.3,321.1 316.9,321.3 317.4,321.6C317.9,321.9 318.5,322.2 319,322.5L320.5,323.4C321,323.7 321.5,324 321.9,324.4C322.8,325.1 323.7,325.7 324.6,326.3C326.2,327.6 327.7,328.8 328.9,330.1C330.1,331.3 331.1,332.3 331.9,333.3C333.5,335.1 334.3,336.2 334.3,336.2C334.3,336.2 333.2,335.4 331.2,334C330.3,333.3 329,332.5 327.7,331.6C326.4,330.6 324.7,329.8 323,328.7C322.1,328.2 321.2,327.8 320.2,327.3C319.7,327.1 319.3,326.8 318.8,326.6C318.3,326.4 317.8,326.2 317.3,325.9C316.8,325.7 316.3,325.4 315.7,325.2C315.2,325 314.6,324.8 314.1,324.6C313.5,324.4 313,324.2 312.4,324C311.8,323.8 311.2,323.7 310.7,323.5C310.1,323.3 309.5,323.2 308.9,323C308.3,322.8 307.7,322.7 307.1,322.6C306.5,322.5 305.9,322.3 305.3,322.2C304.7,322.1 304.1,322 303.4,321.9C300.9,321.5 298.3,321.5 295.7,321.5C294.4,321.6 293.1,321.6 291.9,321.8C291.3,321.9 290.6,321.9 290,322C289.4,322.1 288.7,322.2 288.1,322.3C287.5,322.4 286.8,322.5 286.2,322.7C285.6,322.8 285,323 284.3,323.1C283.1,323.4 281.9,323.7 280.7,324.1C278.3,324.8 276.1,325.7 274,326.5C271.9,327.4 269.9,328.3 268.2,329.2C266.4,330.1 264.8,331 263.4,331.8C262,332.6 260.8,333.4 259.7,334C258.7,334.7 257.9,335.1 257.4,335.5C256.9,335.9 256.6,336 256.6,336Z" style="fill-rule:nonzero;"/>
            </g>
            <g transform="matrix(2.22839,0,0,2.22839,885.313,882.988)">
                <path d="M540.2,336C540.2,336 539.9,335.8 539.4,335.4C538.9,335 538.1,334.5 537.1,333.9C536.1,333.3 534.9,332.5 533.4,331.7C532,330.9 530.4,330 528.6,329.1C526.8,328.2 524.8,327.3 522.8,326.4C520.7,325.6 518.5,324.7 516.1,324C514.9,323.6 513.7,323.3 512.5,323C511.9,322.9 511.3,322.7 510.6,322.6C510,322.5 509.4,322.3 508.7,322.2C508.1,322.1 507.4,322 506.8,321.9C506.2,321.8 505.5,321.8 504.9,321.7C503.6,321.5 502.3,321.5 501.1,321.4C498.5,321.4 496,321.4 493.4,321.8C492.8,321.9 492.1,322 491.5,322.1C490.9,322.2 490.3,322.4 489.7,322.5C489.1,322.6 488.5,322.7 487.9,322.9C487.3,323.1 486.7,323.2 486.1,323.4C485.5,323.6 484.9,323.7 484.4,323.9C483.8,324.1 483.3,324.3 482.7,324.5C482.1,324.7 481.6,324.9 481.1,325.1C480.6,325.3 480,325.6 479.5,325.8C479,326 478.5,326.2 478,326.5C477.5,326.7 477,327 476.6,327.2C475.7,327.7 474.7,328.1 473.8,328.6C472.1,329.7 470.5,330.5 469.1,331.5C467.8,332.4 466.5,333.2 465.6,333.9C463.7,335.3 462.5,336.1 462.5,336.1C462.5,336.1 463.3,335 464.9,333.2C465.7,332.2 466.7,331.2 467.9,330C469.1,328.8 470.6,327.6 472.2,326.2C473,325.5 473.9,324.9 474.9,324.3C475.4,324 475.8,323.6 476.3,323.3L477.8,322.4C478.3,322.1 478.9,321.8 479.4,321.5C479.9,321.2 480.5,321 481.1,320.7C482.3,320.1 483.4,319.6 484.7,319.2C485.3,319 486,318.7 486.6,318.5C487.2,318.3 487.9,318.1 488.6,318C489.3,317.8 489.9,317.6 490.6,317.5C491.3,317.4 492,317.3 492.7,317.1C494.1,316.8 495.5,316.7 496.9,316.6C498.3,316.5 499.8,316.5 501.2,316.5C504.1,316.6 506.9,316.9 509.6,317.5C511,317.7 512.3,318.2 513.6,318.5C514.9,318.9 516.2,319.3 517.4,319.8C519.9,320.7 522.2,321.9 524.3,323C526.4,324.2 528.3,325.4 530,326.6C530.9,327.2 531.6,327.8 532.4,328.4C533.1,329 533.8,329.6 534.5,330.1C535.8,331.2 536.8,332.2 537.7,333.1C539.4,334.9 540.2,336 540.2,336Z" style="fill-rule:nonzero;"/>
            </g>
        </g>
    </g>
</svg>
